<svg width="388" height="277" viewBox="0 0 388 277" fill="none" xmlns="http://www.w3.org/2000/svg">
<g clip-path="url(#clip0_13_1532)">
<path d="M376.529 81.1723H164.21C161.221 81.175 158.356 82.36 156.243 84.4673C154.129 86.5746 152.941 89.4318 152.938 92.4119V126.722C152.941 129.703 154.129 132.56 156.243 134.667C158.356 136.774 161.221 137.959 164.21 137.962H376.529C379.517 137.959 382.383 136.774 384.496 134.667C386.609 132.56 387.798 129.703 387.8 126.722V92.4119C387.798 89.4318 386.609 86.5746 384.496 84.4673C382.383 82.36 379.517 81.175 376.529 81.1723Z" fill="#A2A2A2"/>
<g filter="url(#filter0_d_13_1532)">
<path d="M85.1454 277H0.675757C0.496535 277 0.324643 276.929 0.197914 276.803C0.0711848 276.676 0 276.505 0 276.326C0 276.147 0.0711848 275.976 0.197914 275.85C0.324643 275.723 0.496535 275.652 0.675757 275.652H85.1454C85.3246 275.652 85.4965 275.723 85.6232 275.85C85.75 275.976 85.8212 276.147 85.8212 276.326C85.8212 276.505 85.75 276.676 85.6232 276.803C85.4965 276.929 85.3246 277 85.1454 277Z" fill="#B8B7BB"/>
</g>
<path d="M72.7429 66.0205C71.9595 66.5136 71.2941 67.1719 70.7935 67.9491C70.2929 68.7264 69.9693 69.6036 69.8454 70.519C69.7216 71.4344 69.8006 72.3658 70.0768 73.2475C70.353 74.1292 70.8197 74.9398 71.444 75.6222L65.3031 88.6982L72.3619 94.3574L80.774 75.7701C81.8542 74.6483 82.4841 73.1703 82.5444 71.6162C82.6048 70.0622 82.0913 68.5401 81.1014 67.3383C80.1114 66.1365 78.7138 65.3386 77.1733 65.0957C75.6327 64.8528 74.0564 65.1819 72.7429 66.0205Z" fill="#FFB8B8"/>
<path d="M37.4537 71.3269C39.3972 70.1628 41.7154 69.7893 43.9277 70.2838C46.1399 70.7783 48.0764 72.1029 49.3355 73.9828L61.9011 92.7437L66.2634 83.1542C66.5358 82.5554 67.0183 82.0765 67.6201 81.8078C68.2219 81.539 68.9015 81.4989 69.531 81.6949L76.1151 83.7458C76.459 83.8529 76.7781 84.0275 77.0534 84.2594C77.3287 84.4913 77.5547 84.7757 77.7182 85.096C77.8816 85.4162 77.9792 85.7659 78.0051 86.1243C78.0311 86.4827 77.9849 86.8426 77.8693 87.183L73.3623 100.454C72.7922 102.132 71.8396 103.656 70.5794 104.906C69.3191 106.156 67.7856 107.098 66.099 107.657C64.4124 108.216 62.6188 108.378 60.8589 108.13C59.099 107.882 57.4207 107.23 55.9558 106.227C55.2713 105.758 54.6398 105.216 54.0722 104.611L35.5548 84.8821C34.6556 83.924 33.9826 82.7775 33.5853 81.5266C33.1879 80.2756 33.0761 78.9519 33.2582 77.6523C33.4402 76.3528 33.9115 75.1102 34.6374 74.0158C35.3634 72.9213 36.3256 72.0025 37.4537 71.3269Z" fill="#CCCCCC"/>
<path d="M78.1026 51.9421C78.4398 51.9505 78.76 52.0921 78.9925 52.3358C79.2251 52.5795 79.3511 52.9053 79.3427 53.2416L79.2342 57.5964L79.4532 57.6163L79.3746 60.5739L79.1607 60.5473L78.7721 76.1481C78.7588 76.682 78.5511 77.1929 78.1878 77.5854C77.8245 77.9779 77.3304 78.2252 76.7977 78.2811L66.8493 79.3254C66.6071 79.3509 66.3622 79.3232 66.1319 79.2442C65.9016 79.1653 65.6913 79.0371 65.5159 78.8687C65.3405 78.7002 65.2042 78.4954 65.1166 78.2689C65.0289 78.0423 64.992 77.7993 65.0085 77.557L66.5173 55.3427C66.549 54.8761 66.7389 54.4341 67.0559 54.0895C67.3729 53.7448 67.798 53.5179 68.2615 53.4461L77.8653 51.9584C77.9437 51.9456 78.0231 51.9401 78.1026 51.9421Z" fill="#3F3D56"/>
<path d="M70.4034 54.2541L75.4522 53.472C75.5431 53.4579 75.6267 53.4144 75.6903 53.3481C75.7538 53.2818 75.7937 53.1964 75.8037 53.1053C75.815 53.002 75.8601 52.9054 75.9321 52.8303C76.0041 52.7552 76.0989 52.7059 76.2018 52.6899L77.2653 52.5252C77.4104 52.5027 77.5587 52.5122 77.6997 52.5532C77.8407 52.5941 77.971 52.6653 78.0814 52.7619C78.1918 52.8585 78.2795 52.9781 78.3385 53.1122C78.3975 53.2463 78.4262 53.3917 78.4227 53.5381L77.876 76.1565C77.8693 76.4372 77.7591 76.7056 77.5665 76.9104C77.3739 77.1153 77.1125 77.2422 76.832 77.2671L66.8909 78.1484C66.7641 78.1596 66.6364 78.1435 66.5164 78.101C66.3964 78.0584 66.2871 77.9906 66.1958 77.9021C66.1045 77.8136 66.0335 77.7065 65.9875 77.5881C65.9416 77.4697 65.9218 77.3429 65.9295 77.2161L67.2708 55.2071C67.2906 54.8828 67.421 54.575 67.6403 54.3348C67.8597 54.0946 68.1549 53.9364 68.4768 53.8866L69.5979 53.7129C69.6391 53.8877 69.7449 54.0405 69.8943 54.1409C70.0436 54.2412 70.2254 54.2817 70.4034 54.2541Z" fill="white"/>
<path d="M46.98 268.821L54.7053 268.82L58.3793 239.107L46.9773 239.108L46.98 268.821Z" fill="#FFB8B8"/>
<path d="M69.6047 275.972L45.325 275.974L45.3241 266.62L60.2231 266.619C61.455 266.619 62.6748 266.861 63.813 267.331C64.9512 267.801 65.9854 268.489 66.8565 269.358C67.7277 270.227 68.4188 271.258 68.8903 272.392C69.3619 273.527 69.6046 274.744 69.6047 275.972Z" fill="#2F2E41"/>
<path d="M23.2366 268.821L30.9618 268.82L34.6359 239.107L23.2339 239.108L23.2366 268.821Z" fill="#FFB8B8"/>
<path d="M45.8616 275.972L21.5818 275.974L21.5809 266.62L36.4799 266.619C38.9679 266.619 41.354 267.604 43.1134 269.358C44.8728 271.112 45.8613 273.491 45.8616 275.972Z" fill="#2F2E41"/>
<path d="M45.8616 61.2285C55.028 61.2285 62.4589 53.8189 62.4589 44.6786C62.4589 35.5384 55.028 28.1287 45.8616 28.1287C36.6951 28.1287 29.2643 35.5384 29.2643 44.6786C29.2643 53.8189 36.6951 61.2285 45.8616 61.2285Z" fill="#FFB8B8"/>
<path d="M54.4035 88.9575C54.2679 84.7026 53.0666 80.549 50.909 76.8755C48.7514 73.2021 45.7062 70.1254 42.0509 67.9259C37.763 65.4064 33.0695 64.4238 29.3355 68.1472C27.0934 70.4389 25.2978 73.1262 24.0403 76.0721C20.5862 84.1 20.3602 93.1448 23.4092 101.334L32.2964 125.817L52.8659 128.039C53.2523 128.081 53.6431 128.039 54.0118 127.916C54.3805 127.794 54.7183 127.593 55.0023 127.329C55.2863 127.064 55.5097 126.742 55.6574 126.383C55.805 126.025 55.8734 125.639 55.8579 125.252L54.4035 88.9575Z" fill="#2F2E41"/>
<path d="M33.6006 122.802C33.6006 122.802 18.233 128.523 22.2508 152.746C25.8562 174.483 22.9911 246.63 22.3648 261.214C22.335 261.909 22.5762 262.589 23.0378 263.111C23.4994 263.633 24.1456 263.956 24.841 264.013L33.8117 264.758C34.5143 264.817 35.212 264.599 35.7559 264.152C36.2999 263.705 36.647 263.063 36.7233 262.364L41.3563 219.931C41.3744 219.764 41.4542 219.61 41.5799 219.499C41.7056 219.388 41.8683 219.328 42.0363 219.33C42.2042 219.332 42.3654 219.396 42.4884 219.51C42.6114 219.624 42.6873 219.78 42.7014 219.947L46.1537 260.778C46.2118 261.466 46.5325 262.105 47.0495 262.564C47.5666 263.023 48.2406 263.267 48.9326 263.245L56.4674 263.008C56.8225 262.996 57.1719 262.916 57.4956 262.77C57.8193 262.624 58.111 262.416 58.3539 262.157C58.5969 261.899 58.7864 261.595 58.9116 261.264C59.0368 260.932 59.0952 260.579 59.0835 260.225L54.645 125.631L33.6006 122.802Z" fill="#2F2E41"/>
<path d="M49.1926 43.5882C54.7435 45.8583 61.8322 43.2065 64.516 37.856C67.1997 32.5055 65.0758 25.259 59.9247 22.1918C54.7737 19.1245 47.3685 20.6967 43.9173 25.5903C41.1099 20.547 33.7554 19.2612 28.7058 22.0753C23.6563 24.8894 20.9058 30.7838 20.5796 36.5428C20.2534 42.3018 22.0093 47.9752 24.1512 53.3333C27.6159 62.0005 38.7699 66.6672 47.3994 63.0602C43.4488 57.193 44.2287 48.607 49.1926 43.5882Z" fill="#2F2E41"/>
<path d="M71.561 68.0271C71.4133 68.0273 71.2695 67.9797 71.1513 67.8913L71.144 67.8858L69.6008 66.7087C69.5293 66.6541 69.4694 66.586 69.4243 66.5082C69.3792 66.4305 69.35 66.3446 69.3382 66.2556C69.3264 66.1666 69.3323 66.0761 69.3556 65.9894C69.3788 65.9026 69.419 65.8213 69.4738 65.75C69.5286 65.6788 69.5969 65.6189 69.6749 65.574C69.7529 65.5291 69.839 65.4999 69.9283 65.4881C70.0175 65.4764 70.1083 65.4823 70.1953 65.5055C70.2822 65.5287 70.3638 65.5688 70.4353 65.6234L71.4348 66.3877L73.7968 63.315C73.8515 63.2438 73.9198 63.184 73.9978 63.1391C74.0757 63.0942 74.1618 63.065 74.251 63.0532C74.3403 63.0415 74.4309 63.0474 74.5179 63.0706C74.6049 63.0938 74.6864 63.1338 74.7578 63.1885C74.902 63.2989 74.9969 63.462 75.0206 63.6417C75.0444 63.8214 74.9957 64.0032 74.8852 64.1471L72.1071 67.7596C72.0428 67.8428 71.9601 67.9102 71.8655 67.9564C71.771 68.0027 71.6669 68.0265 71.5616 68.0262L71.561 68.0271Z" fill="#6C63FF"/>
<path d="M376.728 0H164.41C161.421 0.00269946 158.556 1.18775 156.442 3.295C154.329 5.40226 153.141 8.25953 153.138 11.2396V45.5501C153.141 48.5302 154.329 51.3875 156.442 53.4948C158.556 55.602 161.421 56.7871 164.41 56.7898H376.728C379.717 56.7871 382.582 55.602 384.696 53.4948C386.809 51.3875 387.997 48.5302 388 45.5501V11.2396C387.997 8.25953 386.809 5.40225 384.696 3.29499C382.582 1.18774 379.717 0.00269946 376.728 0ZM386.814 45.5501C386.81 48.2161 385.746 50.7718 383.855 52.657C381.965 54.5421 379.402 55.6029 376.728 55.6066H164.41C161.736 55.6029 159.173 54.5421 157.282 52.657C155.392 50.7718 154.328 48.2161 154.324 45.5501V11.2396C154.328 8.57364 155.392 6.01792 157.282 4.13278C159.173 2.24763 161.736 1.18689 164.41 1.18312H376.728C379.402 1.18689 381.965 2.24763 383.855 4.13278C385.746 6.01792 386.81 8.57364 386.814 11.2396V45.5501Z" fill="#B8B7BB"/>
<path d="M207.617 47.9576C203.736 47.9576 199.943 46.8103 196.717 44.6607C193.491 42.5112 190.976 39.4559 189.491 35.8813C188.006 32.3067 187.618 28.3733 188.375 24.5785C189.132 20.7837 191 17.2979 193.744 14.562C196.488 11.8261 199.983 9.96291 203.789 9.20806C207.595 8.45322 211.539 8.84062 215.124 10.3213C218.709 11.8019 221.773 14.3093 223.929 17.5264C226.085 20.7435 227.235 24.5257 227.235 28.3949C227.229 33.5814 225.161 38.5538 221.483 42.2212C217.805 45.8887 212.818 47.9517 207.617 47.9576Z" fill="#6C63FF"/>
<path d="M347.759 44.367H245.786C244.527 44.367 243.32 43.8684 242.43 42.9809C241.54 42.0934 241.04 40.8897 241.04 39.6345C241.04 38.3794 241.54 37.1757 242.43 36.2882C243.32 35.4007 244.527 34.902 245.786 34.902H347.759C349.018 34.902 350.225 35.4007 351.115 36.2882C352.005 37.1757 352.505 38.3794 352.505 39.6345C352.505 40.8897 352.005 42.0934 351.115 42.9809C350.225 43.8684 349.018 44.367 347.759 44.367Z" fill="#CCCCCC"/>
<path d="M279.535 24.2539H245.786C244.527 24.2539 243.32 23.7553 242.43 22.8678C241.54 21.9803 241.04 20.7766 241.04 19.5214C241.04 18.2663 241.54 17.0626 242.43 16.1751C243.32 15.2876 244.527 14.7889 245.786 14.7889H279.535C280.794 14.7889 282.001 15.2876 282.891 16.1751C283.781 17.0626 284.281 18.2663 284.281 19.5214C284.281 20.7766 283.781 21.9803 282.891 22.8678C282.001 23.7553 280.794 24.2539 279.535 24.2539Z" fill="#CCCCCC"/>
<path d="M206.615 35.2761C206.128 35.2769 205.654 35.1199 205.265 34.8287L205.241 34.8106L200.156 30.9319C199.92 30.7521 199.722 30.5276 199.573 30.2713C199.424 30.0151 199.327 29.732 199.288 29.4384C199.249 29.1448 199.268 28.8463 199.344 28.5602C199.421 28.274 199.554 28.0057 199.734 27.7706C199.915 27.5355 200.14 27.3383 200.398 27.1902C200.655 27.0421 200.939 26.946 201.234 26.9074C201.528 26.8689 201.827 26.8886 202.114 26.9655C202.401 27.0424 202.67 27.1749 202.905 27.3555L206.199 29.874L213.982 19.7493C214.162 19.5145 214.387 19.3176 214.644 19.1696C214.901 19.0216 215.185 18.9254 215.479 18.8867C215.773 18.848 216.072 18.8674 216.358 18.9438C216.645 19.0202 216.913 19.1522 217.149 19.3322L217.149 19.3327L217.101 19.3995L217.151 19.3327C217.626 19.6966 217.936 20.2336 218.015 20.8257C218.093 21.4179 217.933 22.0168 217.569 22.4911L208.414 34.3947C208.202 34.669 207.93 34.8909 207.618 35.0433C207.307 35.1957 206.964 35.2744 206.617 35.2734L206.615 35.2761Z" fill="white"/>
<path d="M285.501 92.3143H73.1825C70.1938 92.317 67.3284 93.5021 65.2151 95.6093C63.1018 97.7166 61.9134 100.574 61.9106 103.554V137.864C61.9134 140.845 63.1018 143.702 65.2151 145.809C67.3284 147.916 70.1938 149.101 73.1825 149.104H285.501C288.49 149.101 291.355 147.916 293.468 145.809C295.582 143.702 296.77 140.845 296.773 137.864V103.554C296.77 100.574 295.582 97.7166 293.468 95.6093C291.355 93.5021 288.49 92.317 285.501 92.3143Z" fill="white"/>
<path d="M285.501 92.3143H73.1825C70.1938 92.317 67.3284 93.5021 65.2151 95.6093C63.1018 97.7166 61.9134 100.574 61.9106 103.554V137.864C61.9134 140.845 63.1018 143.702 65.2151 145.809C67.3284 147.916 70.1938 149.101 73.1825 149.104H285.501C288.49 149.101 291.355 147.916 293.468 145.809C295.582 143.702 296.77 140.845 296.773 137.864V103.554C296.77 100.574 295.582 97.7166 293.468 95.6093C291.355 93.5021 288.49 92.317 285.501 92.3143ZM295.586 137.864C295.583 140.53 294.519 143.086 292.628 144.971C290.738 146.856 288.175 147.917 285.501 147.921H73.1825C70.5088 147.917 67.9458 146.856 66.0552 144.971C64.1647 143.086 63.1009 140.53 63.0971 137.864V103.554C63.1009 100.888 64.1647 98.3322 66.0552 96.4471C67.9458 94.5619 70.5088 93.5012 73.1825 93.4975H285.501C288.175 93.5012 290.738 94.5619 292.628 96.4471C294.519 98.3322 295.583 100.888 295.586 103.554V137.864Z" fill="#3F3D56"/>
<path d="M116.39 140.272C112.509 140.272 108.716 139.125 105.49 136.975C102.264 134.826 99.749 131.77 98.2641 128.196C96.7791 124.621 96.3906 120.688 97.1476 116.893C97.9046 113.098 99.7731 109.612 102.517 106.876C105.261 104.14 108.756 102.277 112.562 101.522C116.368 100.768 120.312 101.155 123.897 102.636C127.482 104.116 130.546 106.624 132.702 109.841C134.857 113.058 136.008 116.84 136.008 120.709C136.002 125.896 133.933 130.868 130.255 134.536C126.578 138.203 121.591 140.266 116.39 140.272Z" fill="#6C63FF"/>
<path d="M256.532 136.681H154.559C153.3 136.681 152.093 136.183 151.203 135.295C150.313 134.408 149.813 133.204 149.813 131.949C149.813 130.694 150.313 129.49 151.203 128.602C152.093 127.715 153.3 127.216 154.559 127.216H256.532C257.791 127.216 258.998 127.715 259.888 128.602C260.778 129.49 261.278 130.694 261.278 131.949C261.278 133.204 260.778 134.408 259.888 135.295C258.998 136.183 257.791 136.681 256.532 136.681Z" fill="#CCCCCC"/>
<path d="M188.308 116.568H154.559C153.935 116.568 153.318 116.446 152.742 116.208C152.167 115.97 151.643 115.622 151.203 115.182C150.762 114.743 150.412 114.221 150.174 113.647C149.935 113.073 149.813 112.457 149.813 111.836C149.813 111.214 149.935 110.599 150.174 110.025C150.412 109.451 150.762 108.929 151.203 108.489C151.643 108.05 152.167 107.701 152.742 107.464C153.318 107.226 153.935 107.103 154.559 107.103H188.308C189.566 107.103 190.774 107.602 191.664 108.489C192.554 109.377 193.054 110.581 193.054 111.836C193.054 113.091 192.554 114.295 191.664 115.182C190.774 116.07 189.566 116.568 188.308 116.568Z" fill="#CCCCCC"/>
<path d="M115.388 127.59C114.901 127.591 114.427 127.434 114.038 127.143L114.013 127.125L108.928 123.246C108.692 123.066 108.494 122.842 108.345 122.586C108.196 122.329 108.1 122.046 108.06 121.753C108.021 121.459 108.041 121.161 108.117 120.874C108.194 120.588 108.326 120.32 108.507 120.085C108.688 119.85 108.913 119.653 109.171 119.505C109.428 119.356 109.712 119.26 110.006 119.222C110.301 119.183 110.6 119.203 110.887 119.28C111.174 119.357 111.443 119.489 111.678 119.67L114.972 122.188L122.755 112.064C122.935 111.829 123.16 111.632 123.417 111.484C123.674 111.336 123.957 111.24 124.252 111.201C124.546 111.162 124.844 111.182 125.131 111.258C125.418 111.335 125.686 111.467 125.922 111.647L125.922 111.647L125.874 111.714L125.924 111.647C126.398 112.011 126.709 112.548 126.788 113.14C126.866 113.732 126.705 114.331 126.341 114.805L117.187 126.709C116.975 126.983 116.703 127.205 116.391 127.358C116.079 127.51 115.737 127.589 115.39 127.588L115.388 127.59Z" fill="white"/>
<path d="M66.2975 100.054C65.4443 99.6942 64.5223 99.5253 63.5966 99.5592C62.6709 99.5931 61.7638 99.829 60.9394 100.25C60.115 100.671 59.3932 101.268 58.8249 101.997C58.2567 102.727 57.8557 103.572 57.6503 104.472L43.3781 106.91L42.7485 115.92L62.8552 112.195C64.3955 112.439 65.9721 112.111 67.286 111.273C68.6 110.435 69.5601 109.146 69.9844 107.649C70.4087 106.153 70.2678 104.553 69.5882 103.153C68.9087 101.753 67.7378 100.651 66.2975 100.054Z" fill="#FFB8B8"/>
<path d="M41.7813 74.1935C43.8493 75.12 45.4804 76.8046 46.3362 78.898C47.1921 80.9914 47.207 83.3329 46.378 85.437L38.1049 106.435L48.4911 104.531C49.1396 104.412 49.8094 104.534 50.3743 104.873C50.9392 105.213 51.3602 105.746 51.5581 106.373L53.6286 112.934C53.7367 113.277 53.775 113.638 53.7413 113.996C53.7075 114.353 53.6024 114.701 53.432 115.018C53.2616 115.334 53.0295 115.614 52.7492 115.84C52.4689 116.065 52.1462 116.233 51.8 116.333L38.3004 120.219C36.5927 120.711 34.794 120.801 33.0455 120.483C31.297 120.165 29.6462 119.447 28.2227 118.386C26.7993 117.324 25.6419 115.948 24.8415 114.366C24.041 112.784 23.6193 111.038 23.6094 109.265C23.6048 108.437 23.6902 107.611 23.864 106.801L29.5363 80.3778C29.8118 79.0947 30.3715 77.8892 31.1747 76.8497C31.9778 75.8102 33.0039 74.963 34.1778 74.3701C35.3518 73.7772 36.6439 73.4536 37.9595 73.423C39.2751 73.3925 40.5809 73.6557 41.7813 74.1935Z" fill="#CCCCCC"/>
</g>
<defs>
<filter id="filter0_d_13_1532" x="-4" y="275.652" width="93.8212" height="9.34766" filterUnits="userSpaceOnUse" color-interpolation-filters="sRGB">
<feFlood flood-opacity="0" result="BackgroundImageFix"/>
<feColorMatrix in="SourceAlpha" type="matrix" values="0 0 0 0 0 0 0 0 0 0 0 0 0 0 0 0 0 0 127 0" result="hardAlpha"/>
<feOffset dy="4"/>
<feGaussianBlur stdDeviation="2"/>
<feComposite in2="hardAlpha" operator="out"/>
<feColorMatrix type="matrix" values="0 0 0 0 0 0 0 0 0 0 0 0 0 0 0 0 0 0 0.25 0"/>
<feBlend mode="normal" in2="BackgroundImageFix" result="effect1_dropShadow_13_1532"/>
<feBlend mode="normal" in="SourceGraphic" in2="effect1_dropShadow_13_1532" result="shape"/>
</filter>
<clipPath id="clip0_13_1532">
<rect width="388" height="277" fill="white"/>
</clipPath>
</defs>
</svg>
