<svg width="388" height="277" viewBox="0 0 388 277" fill="none" xmlns="http://www.w3.org/2000/svg">
<g clip-path="url(#clip0_13_1628)">
<path d="M327.47 35.4113H330.339C332.538 18.4689 315.621 5.60306 296.218 4.03241C303.838 5.78721 310.812 9.66158 316.339 15.2114C321.866 20.7613 325.724 27.762 327.47 35.4113Z" fill="#F2F2F2"/>
<path d="M282.81 85.9602C281.186 85.9403 279.629 85.8853 278.142 85.7952C279.686 86.0341 281.253 86.0895 282.81 85.9602Z" fill="#F2F2F2"/>
<path d="M246.697 44.6236C247.071 22.307 264.788 4.14533 287.025 4.14533C290.079 3.81984 293.157 3.78203 296.218 4.03238C290.146 2.64932 283.842 2.65599 277.773 4.05188C271.703 5.44778 266.025 8.1971 261.159 12.096C256.293 15.9948 252.364 20.9432 249.662 26.5741C246.961 32.205 245.558 38.374 245.556 44.6236C245.556 65.7846 246.31 83.8381 278.141 85.7952C262.015 83.3368 246.403 62.1471 246.697 44.6236Z" fill="#F2F2F2"/>
<path d="M326.994 45.2755C319.705 57.7924 291.044 66.972 287.026 85.1024C285.658 85.5528 284.243 85.8407 282.81 85.9602C284.13 85.9764 285.493 85.9711 286.909 85.9385C309.558 85.9385 328.136 67.9217 328.487 45.2755L326.994 45.2755Z" fill="#F2F2F2"/>
<path d="M290.28 75.0409C284.98 63.4994 282.659 51.0607 284.284 37.4336C284.033 35.8484 284.913 34.2597 286.252 33.8824L310.25 27.153C311.589 26.7793 312.879 27.7593 313.133 29.3438L319.129 66.9511C319.38 68.5363 318.5 70.125 317.161 70.5023L293.164 77.2316C291.824 77.6053 290.534 76.6253 290.28 75.0409Z" fill="#F2F2F2"/>
<path d="M301.646 31.3134C301.992 28.6264 300.461 26.2133 298.226 25.9235C295.992 25.6337 293.9 27.577 293.554 30.264C293.208 32.9509 294.739 35.364 296.974 35.6538C299.208 35.9436 301.3 34.0003 301.646 31.3134Z" fill="#F2F2F2"/>
<path d="M257.762 56.65C252.461 45.1085 250.14 32.6698 251.766 19.0427C251.515 17.4574 252.395 15.8688 253.734 15.4915L277.731 8.76208C279.071 8.38838 280.361 9.36841 280.615 10.9529L286.611 48.5601C286.862 50.1454 285.982 51.7341 284.643 52.1113L260.645 58.8407C259.306 59.2144 258.016 58.2344 257.762 56.65Z" fill="#F2F2F2"/>
<path d="M269.128 12.9224C269.474 10.2355 267.943 7.82232 265.708 7.53254C263.474 7.24275 261.382 9.18604 261.036 11.873C260.69 14.5599 262.221 16.973 264.456 17.2628C266.69 17.5526 268.782 15.6093 269.128 12.9224Z" fill="#F2F2F2"/>
<path d="M290.607 181.598H49V182.387H290.607V181.598Z" fill="#B8B7BB"/>
<path d="M147.277 88.4791C146.992 87.4779 150.977 96.6546 150.029 96.7651C145.712 97.2623 136.145 99.5034 133.138 100.711C133.003 100.695 132.867 100.679 132.736 100.66C132.413 100.624 132.098 100.573 131.788 100.514C124.786 99.1838 119.489 93.4113 119.345 86.4431C119.338 86.3445 119.338 86.2419 119.338 86.1432C119.337 85.6622 119.362 85.1814 119.413 84.7031C119.479 84.0499 119.592 83.4024 119.752 82.7657L119.736 82.7618C116.948 80.1339 118.123 75.261 121.675 73.2052C123.219 72.3143 124.931 71.7566 126.702 71.5678C127.182 71.5155 127.665 71.4891 128.148 71.4888H132.684C133.623 71.2858 134.574 71.1474 135.532 71.0745H135.54C144.672 70.3761 151.873 75.9633 151.2 82.7618C151.196 82.7697 151.188 82.7776 151.184 82.7855C150.989 83.0774 150.818 83.3536 150.666 83.618C150.519 83.8666 150.396 84.1033 150.288 84.3282C149.456 86.0643 151.595 88.2489 150.177 88.6567C148.29 89.199 155.14 107.024 147.67 107.024C151.304 108.061 148.064 91.2411 147.277 88.4791Z" fill="#2F2E41"/>
<path d="M188.95 260.773L194.84 260.723L197.447 237.389L188.754 237.462L188.95 260.773Z" fill="#FFB6B6"/>
<path d="M207.816 270.174C207.821 270.875 207.549 271.549 207.06 272.049C206.57 272.549 205.903 272.833 205.205 272.84L193.495 272.938L191.445 268.767L190.692 272.96L186.273 273L187.389 258.048L188.926 257.945L195.196 257.511L197.219 257.375L197.255 261.606L206.662 268.01C207.014 268.25 207.304 268.573 207.504 268.949C207.705 269.326 207.812 269.747 207.816 270.174Z" fill="#2F2E41"/>
<path d="M196.416 249.07C194.073 248.786 188.161 248.281 188.161 248.281C188.161 248.281 185.37 242.433 185.822 240.614C186.266 238.787 187.374 238.417 186.344 237.462C183.836 228.158 184.237 213.046 184.237 213.046C184.237 213.046 170.738 206.484 157.07 198.888C143.708 191.458 130.185 183.042 128.962 178.801C128.155 175.767 127.613 172.668 127.343 169.54C127.138 167.488 127.012 165.476 126.934 163.673C126.749 159.545 126.824 156.495 126.824 156.495L143.857 156.211L155.139 155.951H156.319V157.924L159.283 162.982C159.283 162.982 164.405 168.96 163.804 169.516C163.076 170.191 163.296 170.791 165.879 171.28C166.614 171.409 167.362 171.44 168.104 171.371C172.275 171.051 174.02 173.446 174.123 173.971C174.822 177.676 181.839 185.725 188.412 192.595H188.416C194.482 198.94 200.166 204.274 200.166 204.274L200.488 211.081L202.002 242.903C202.002 242.903 199.164 241.309 201.699 244.745C204.235 248.186 198.759 249.35 196.416 249.07Z" fill="#2F2E41"/>
<path d="M260.32 175.076L262.725 169.678L242.667 157.593L239.118 165.559L260.32 175.076Z" fill="#FFB6B6"/>
<path d="M276.684 161.765C277.322 162.051 277.819 162.58 278.069 163.235C278.318 163.889 278.298 164.617 278.014 165.257L273.232 175.987L268.601 176.123L272.086 178.554L270.284 182.604L257.201 175.367L257.748 173.921L259.963 168.017L260.681 166.114L264.529 167.841L274.244 161.918C274.608 161.696 275.02 161.566 275.445 161.54C275.87 161.513 276.296 161.59 276.684 161.765Z" fill="#2F2E41"/>
<path d="M250.003 162.012C249.989 162.042 249.973 162.071 249.959 162.096C248.863 164.115 247.065 168.786 246.953 169.074C246.95 169.079 246.948 169.085 246.947 169.091C246.947 169.091 241.013 168.784 239.496 167.692C237.977 166.591 240.276 168.331 236.773 166.03C234.961 164.834 228.755 162.966 223.197 161.441C218.025 160.021 213.418 158.905 213.418 158.905C213.418 158.905 209.345 162.626 203.443 167.768L203.441 167.77C197.96 172.536 190.897 178.528 184.052 183.894C169.397 188.22 153.93 191.969 150.064 189.863C147.346 188.308 144.768 186.519 142.359 184.515L146.341 174.04L156.871 162.972L167.954 158.451L172.29 156.681L178.362 154.208L211.234 140.803L247.637 153.459C247.637 153.459 245.101 155.515 249.228 154.431C253.299 153.363 251.148 159.847 250.003 162.012Z" fill="#2F2E41"/>
<path d="M135.091 101.105H146.884L148.741 105.219L156.639 108.751C157.666 109.211 158.571 109.907 159.281 110.783C159.991 111.659 160.486 112.69 160.726 113.792C163.57 126.841 159.973 129.553 159.857 133.855C159.464 148.454 157.438 151.358 157.665 154.962C157.733 156.041 158.388 160.305 160.499 159.904C162.609 159.502 161.471 161.188 161.971 161.844C162.402 162.41 164.671 161.658 163.247 163.539C161.822 165.421 167.912 170.55 164.181 170.55C157.105 170.55 142.953 174.101 137.45 174.101C131.946 174.101 127.693 175.739 125.263 175.68C123.782 175.643 124.245 168.712 124.837 162.709C124.971 161.35 127.572 161.386 125.238 158.866C122.905 156.346 125.651 155.036 125.656 154.373C125.662 153.668 126.979 151.893 125.335 148.99C123.691 146.087 125.206 147.288 125.135 146.376C124.585 139.351 123.796 130.393 123.796 130.393L120.32 120.573C119.431 118.062 119.548 115.304 120.647 112.879C121.746 110.454 123.74 108.552 126.209 107.574L130.287 105.96L135.091 101.105Z" fill="#6C63FF"/>
<path d="M217.917 97.483C217.655 97.9738 217.29 98.4015 216.847 98.7367C216.404 99.0719 215.894 99.3064 215.352 99.4242C214.81 99.542 214.248 99.5401 213.707 99.4188C213.166 99.2975 212.657 99.0595 212.216 98.7215L195.603 108.162L191.872 104.192L211.685 93.1239C212.307 92.4215 213.164 91.9725 214.094 91.8622C215.024 91.7518 215.962 91.9876 216.73 92.5249C217.498 93.0622 218.044 93.8637 218.262 94.7776C218.481 95.6914 218.358 96.654 217.917 97.483Z" fill="#FFB6B6"/>
<path d="M143.116 119.767L142.863 122.807L175.937 122.38L208.858 103.803L204.045 96.3681L175.109 108.58L154.543 108.998C151.649 109.057 148.879 110.19 146.769 112.179C144.658 114.168 143.357 116.871 143.116 119.767Z" fill="#6C63FF"/>
<path d="M139.125 98.9381C145.056 98.9381 149.865 94.1115 149.865 88.1575C149.865 82.2036 145.056 77.377 139.125 77.377C133.193 77.377 128.384 82.2036 128.384 88.1575C128.384 94.1115 133.193 98.9381 139.125 98.9381Z" fill="#FFB6B6"/>
<path d="M151.2 83.3497C151.021 83.4444 150.846 83.5312 150.666 83.618C150.479 83.7088 150.292 83.7995 150.105 83.8824C146.508 85.5198 143.581 85.7013 141.805 83.3497C141.757 82.1123 141.48 80.8947 140.988 79.7591C141.075 81.0281 140.742 82.2904 140.04 83.3497H136.464C132.78 85.8039 130.888 86.0604 133.445 94.1176C134.158 96.3627 136.992 109.427 135.877 111.364C135.555 111.329 132.098 100.573 131.788 100.514C124.786 99.1839 119.489 93.4113 119.345 86.4431C119.353 86.088 119.377 85.7329 119.413 85.3857C119.874 84.6897 120.381 84.0254 120.931 83.397C120.928 81.5344 121.354 79.6964 122.177 78.0269C123.218 75.9117 124.841 74.1399 126.853 72.9211C128.053 72.3373 129.303 71.8658 130.589 71.5125C130.621 71.5046 130.649 71.4967 130.681 71.4888C131.075 71.3823 131.477 71.2837 131.879 71.2008C132.71 71.0247 133.551 70.8969 134.397 70.8181C134.456 70.8141 134.516 70.8102 134.572 70.8102C134.909 70.811 135.241 70.9022 135.532 71.0745C135.536 71.0745 135.536 71.0785 135.54 71.0785C135.747 71.2004 135.929 71.3627 136.073 71.5559C136.328 71.881 136.465 72.2829 136.464 72.6962H140.446C140.594 72.6962 140.741 72.7002 140.889 72.7081C143.547 72.7992 146.075 73.8828 147.98 75.7466C149.884 77.6105 151.027 80.1205 151.184 82.7854C151.196 82.9748 151.2 83.1603 151.2 83.3497Z" fill="#2F2E41"/>
<path d="M124.477 85.3225C128.385 85.3225 131.553 82.1427 131.553 78.2202C131.553 74.2977 128.385 71.1179 124.477 71.1179C120.569 71.1179 117.401 74.2977 117.401 78.2202C117.401 82.1427 120.569 85.3225 124.477 85.3225Z" fill="#2F2E41"/>
<path d="M133.125 72.6962C133.26 76.6164 129.957 79.7985 126.049 79.7985C124.173 79.7985 122.373 79.0503 121.046 77.7183C119.719 76.3864 118.973 74.5799 118.973 72.6962C118.973 68.7737 123.706 68.7331 126.049 65.5939C129.364 61.1531 132.943 67.4096 133.125 72.6962Z" fill="#2F2E41"/>
<path d="M142.377 183.8C141.278 167.436 144.495 152.043 153.428 137.937C153.653 137.009 154.235 136.208 155.047 135.711C155.859 135.213 156.835 135.059 157.76 135.283L192.268 143.659C193.193 143.885 193.99 144.469 194.486 145.284C194.982 146.1 195.135 147.079 194.913 148.007L183.862 193.87C183.637 194.798 183.055 195.599 182.243 196.097C181.431 196.594 180.455 196.748 179.53 196.525L145.022 188.148C144.097 187.923 143.3 187.338 142.804 186.523C142.308 185.708 142.155 184.729 142.377 183.8Z" fill="#F2F2F2"/>
<path opacity="0.2" d="M149.14 187.276C148.215 187.05 147.418 186.466 146.922 185.65C146.426 184.835 146.273 183.856 146.495 182.928C145.396 166.563 148.613 151.171 157.546 137.064C157.696 136.456 158.004 135.898 158.439 135.447L157.76 135.282C156.835 135.059 155.859 135.213 155.047 135.711C154.235 136.208 153.653 137.009 153.428 137.937C144.495 152.043 141.278 167.436 142.377 183.8C142.155 184.729 142.308 185.708 142.804 186.523C143.3 187.338 144.097 187.923 145.022 188.148L179.53 196.525C180.144 196.672 180.785 196.653 181.389 196.471C181.993 196.289 182.538 195.949 182.969 195.488L149.14 187.276Z" fill="black"/>
<path d="M180.384 167.969L157.244 162.42C156.876 162.331 156.558 162.099 156.36 161.776C156.162 161.452 156.1 161.063 156.188 160.693C156.276 160.324 156.507 160.005 156.829 159.806C157.151 159.607 157.539 159.545 157.907 159.632L181.047 165.182C181.414 165.271 181.731 165.503 181.928 165.826C182.126 166.149 182.187 166.538 182.099 166.907C182.011 167.276 181.782 167.594 181.46 167.793C181.139 167.993 180.752 168.056 180.384 167.969Z" fill="white"/>
<path d="M164.154 155.998L159.063 154.777C158.695 154.689 158.376 154.459 158.178 154.136C157.979 153.813 157.916 153.424 158.003 153.054C158.089 152.685 158.319 152.365 158.64 152.165C158.962 151.965 159.349 151.901 159.718 151.988L159.726 151.99L164.817 153.211C165.184 153.3 165.501 153.532 165.698 153.855C165.895 154.179 165.957 154.567 165.869 154.936C165.781 155.305 165.552 155.624 165.23 155.823C164.908 156.022 164.521 156.085 164.154 155.998Z" fill="white"/>
<path d="M177.467 180.222L154.327 174.673C153.96 174.583 153.643 174.352 153.446 174.028C153.248 173.705 153.187 173.316 153.275 172.947C153.362 172.578 153.592 172.259 153.914 172.06C154.236 171.861 154.623 171.799 154.991 171.886L178.131 177.435C178.314 177.478 178.486 177.556 178.638 177.666C178.791 177.776 178.92 177.915 179.019 178.075C179.118 178.235 179.184 178.413 179.215 178.599C179.245 178.785 179.238 178.975 179.195 179.158C179.152 179.342 179.073 179.515 178.964 179.667C178.854 179.82 178.715 179.95 178.556 180.049C178.396 180.148 178.219 180.214 178.033 180.244C177.848 180.274 177.659 180.267 177.476 180.224L177.467 180.222Z" fill="white"/>
<path d="M178.926 174.095L155.785 168.546C155.417 168.458 155.099 168.227 154.9 167.904C154.702 167.58 154.639 167.191 154.727 166.821C154.814 166.451 155.044 166.132 155.367 165.932C155.689 165.733 156.077 165.67 156.446 165.758L156.449 165.759L179.589 171.308C179.956 171.397 180.273 171.629 180.471 171.953C180.668 172.276 180.729 172.665 180.642 173.034C180.554 173.402 180.324 173.721 180.002 173.92C179.681 174.119 179.293 174.182 178.926 174.095Z" fill="white"/>
<path d="M174.034 145.317C177.321 145.317 179.986 142.642 179.986 139.342C179.986 136.043 177.321 133.368 174.034 133.368C170.747 133.368 168.082 136.043 168.082 139.342C168.082 142.642 170.747 145.317 174.034 145.317Z" fill="#3F3D56"/>
<path d="M144.023 187.22C143.537 186.951 143.116 186.579 142.788 186.13C142.459 185.681 142.232 185.166 142.122 184.62C142.011 184.075 142.021 183.512 142.148 182.97C142.276 182.428 142.52 181.92 142.862 181.482L133.671 164.687L137.674 160.994L148.445 181.021C149.137 181.655 149.573 182.521 149.671 183.456C149.769 184.39 149.522 185.328 148.977 186.093C148.432 186.857 147.627 187.394 146.713 187.601C145.8 187.809 144.843 187.674 144.023 187.22Z" fill="#FFB6B6"/>
<path d="M133.288 112.877L123.402 111.92C122.941 111.875 122.476 111.928 122.036 112.074C121.596 112.221 121.192 112.458 120.849 112.771C120.506 113.083 120.232 113.465 120.044 113.89C119.857 114.315 119.76 114.775 119.76 115.24V144.767L137.843 178.047L145.312 173.312L133.519 144.114L133.288 112.877Z" fill="#6C63FF"/>
<path d="M211.329 110.481C213.621 94.2421 219.936 79.8478 231.579 67.8976C231.989 67.0362 232.724 66.3735 233.621 66.055C234.518 65.7364 235.504 65.788 236.363 66.1984L268.404 81.5481C269.262 81.9605 269.923 82.6977 270.24 83.598C270.557 84.4984 270.506 85.4883 270.097 86.3507L249.848 128.934C249.437 129.796 248.702 130.458 247.805 130.777C246.908 131.095 245.922 131.044 245.063 130.633L213.022 115.284C212.164 114.871 211.504 114.134 211.186 113.234C210.869 112.333 210.92 111.344 211.329 110.481Z" fill="#F2F2F2"/>
<path opacity="0.2" d="M217.231 115.284C216.373 114.871 215.713 114.134 215.395 113.234C215.078 112.333 215.129 111.344 215.538 110.481C217.83 94.242 224.145 79.8478 235.788 67.8976C236.06 67.3334 236.476 66.8514 236.994 66.5005L236.364 66.1984C235.504 65.788 234.518 65.7364 233.621 66.055C232.724 66.3735 231.99 67.0362 231.579 67.8976C219.936 79.8478 213.621 94.242 211.329 110.481C210.92 111.344 210.869 112.333 211.186 113.234C211.504 114.134 212.164 114.871 213.022 115.284L245.063 130.633C245.633 130.904 246.264 131.019 246.893 130.966C247.521 130.913 248.124 130.694 248.641 130.331L217.231 115.284Z" fill="black"/>
<path d="M251.774 102.87L230.275 92.6434C229.933 92.4806 229.669 92.1882 229.542 91.8303C229.414 91.4724 229.434 91.0784 229.596 90.735C229.758 90.3916 230.05 90.1269 230.406 89.9992C230.763 89.8714 231.155 89.8911 231.497 90.0538L252.997 100.28C253.338 100.444 253.6 100.736 253.726 101.094C253.853 101.451 253.833 101.844 253.671 102.186C253.509 102.529 253.219 102.793 252.863 102.921C252.508 103.049 252.116 103.031 251.774 102.87Z" fill="white"/>
<path d="M238.357 87.7926L233.627 85.5428C233.457 85.4629 233.305 85.3501 233.179 85.211C233.052 85.0719 232.954 84.9092 232.891 84.7321C232.827 84.555 232.798 84.367 232.807 84.1789C232.816 83.9909 232.861 83.8063 232.941 83.6359C233.021 83.4655 233.134 83.3126 233.272 83.1859C233.411 83.0591 233.573 82.961 233.75 82.8973C233.926 82.8335 234.114 82.8053 234.301 82.8142C234.488 82.8232 234.672 82.8691 234.842 82.9494L234.85 82.9533L239.58 85.2031C239.921 85.3665 240.183 85.6589 240.31 86.0163C240.436 86.3737 240.417 86.7669 240.255 87.1096C240.093 87.4524 239.802 87.7168 239.447 87.8448C239.091 87.9728 238.699 87.954 238.357 87.7926Z" fill="white"/>
<path d="M246.399 114.254L224.9 104.028C224.559 103.864 224.296 103.572 224.17 103.214C224.043 102.857 224.063 102.464 224.225 102.121C224.387 101.778 224.677 101.514 225.033 101.386C225.389 101.258 225.781 101.277 226.122 101.438L247.622 111.665C247.792 111.745 247.944 111.857 248.07 111.997C248.196 112.136 248.294 112.298 248.358 112.475C248.421 112.652 248.449 112.84 248.441 113.028C248.432 113.216 248.386 113.4 248.307 113.571C248.227 113.741 248.115 113.894 247.976 114.021C247.837 114.147 247.675 114.245 247.499 114.309C247.323 114.373 247.135 114.401 246.948 114.393C246.761 114.384 246.577 114.338 246.408 114.258L246.399 114.254Z" fill="white"/>
<path d="M249.087 108.562L227.587 98.3356C227.245 98.1733 226.981 97.8811 226.853 97.5234C226.725 97.1656 226.745 96.7716 226.906 96.428C227.068 96.0844 227.359 95.8194 227.716 95.6912C228.072 95.563 228.464 95.5822 228.807 95.7445L228.81 95.746L250.309 105.972C250.65 106.136 250.913 106.428 251.039 106.786C251.165 107.143 251.146 107.536 250.984 107.879C250.822 108.221 250.532 108.486 250.176 108.614C249.82 108.742 249.429 108.723 249.087 108.562Z" fill="white"/>
<path d="M251.451 79.5185C254.739 79.5185 257.403 76.8437 257.403 73.5443C257.403 70.2448 254.739 67.5701 251.451 67.5701C248.164 67.5701 245.499 70.2448 245.499 73.5443C245.499 76.8437 248.164 79.5185 251.451 79.5185Z" fill="#3F3D56"/>
<path d="M302.815 131.519C296.359 117.463 293.533 102.315 295.512 85.719C295.207 83.7884 296.279 81.8537 297.909 81.3941L327.134 73.1988C328.765 72.7437 330.336 73.9372 330.646 75.8668L337.948 121.667C338.254 123.597 337.182 125.532 335.551 125.991L306.326 134.187C304.695 134.642 303.124 133.448 302.815 131.519Z" fill="#F2F2F2"/>
<path opacity="0.2" d="M309.171 131.544C307.54 131.999 305.969 130.805 305.659 128.876C299.204 114.82 296.377 99.6715 298.357 83.0759C298.264 82.4597 298.307 81.8303 298.484 81.2328L297.909 81.3941C296.279 81.8536 295.206 83.7883 295.512 85.7189C293.532 102.315 296.359 117.463 302.814 131.519C303.124 133.448 304.695 134.642 306.326 134.187L335.551 125.991C336.107 125.804 336.608 125.478 337.005 125.044C337.401 124.61 337.682 124.082 337.821 123.51L309.171 131.544Z" fill="black"/>
<path d="M326.403 100.207L306.829 105.763C306.18 105.946 305.554 105.472 305.43 104.705C305.36 104.351 305.417 103.985 305.59 103.67C305.764 103.355 306.043 103.111 306.379 102.983L325.953 97.4274C326.602 97.2457 327.227 97.7211 327.349 98.4893C327.418 98.8416 327.362 99.2073 327.188 99.5216C327.015 99.836 326.737 100.079 326.403 100.207Z" fill="white"/>
<path d="M309.901 96.9189L305.595 98.1412C304.946 98.3278 304.319 97.8572 304.192 97.0902C304.121 96.7367 304.176 96.3692 304.349 96.0531C304.522 95.7369 304.802 95.4926 305.137 95.3637L305.145 95.3616L309.451 94.1393C310.1 93.9576 310.725 94.433 310.847 95.2012C310.917 95.5535 310.86 95.9192 310.687 96.2336C310.514 96.5479 310.235 96.7906 309.901 96.9189Z" fill="white"/>
<path d="M328.381 112.427L308.807 117.983C308.158 118.165 307.533 117.689 307.41 116.921C307.341 116.569 307.398 116.203 307.571 115.889C307.744 115.574 308.023 115.332 308.357 115.203L327.931 109.647C328.579 109.461 329.207 109.931 329.333 110.698C329.405 111.052 329.349 111.419 329.176 111.735C329.003 112.052 328.724 112.296 328.388 112.425L328.381 112.427Z" fill="white"/>
<path d="M327.392 106.317L307.818 111.873C307.169 112.058 306.542 111.586 306.417 110.819C306.346 110.465 306.402 110.098 306.576 109.782C306.749 109.466 307.029 109.222 307.365 109.094L307.368 109.093L326.942 103.537C327.591 103.356 328.216 103.831 328.338 104.599C328.408 104.952 328.351 105.317 328.178 105.632C328.004 105.946 327.726 106.189 327.392 106.317Z" fill="white"/>
<path d="M316.656 78.2654C317.078 74.9931 315.213 72.0544 312.492 71.7014C309.771 71.3485 307.223 73.7151 306.802 76.9874C306.381 80.2597 308.245 83.1984 310.966 83.5514C313.688 83.9043 316.235 81.5377 316.656 78.2654Z" fill="#3F3D56"/>
</g>
<defs>
<clipPath id="clip0_13_1628">
<rect width="289" height="270" fill="white" transform="translate(49 3)"/>
</clipPath>
</defs>
</svg>
