<svg width="403" height="258" viewBox="0 0 403 258" fill="none" xmlns="http://www.w3.org/2000/svg">
<g clip-path="url(#clip0_13_1572)">
<path d="M293.299 19.6071H28.9103C28.6418 19.6013 28.3863 19.4906 28.1984 19.2986C28.0106 19.1066 27.9054 18.8486 27.9054 18.5799C27.9054 18.3112 28.0106 18.0532 28.1984 17.8611C28.3863 17.6691 28.6418 17.5584 28.9103 17.5527H293.299C293.567 17.5584 293.823 17.6691 294.011 17.8611C294.199 18.0532 294.304 18.3112 294.304 18.5799C294.304 18.8486 294.199 19.1066 294.011 19.2986C293.823 19.4906 293.567 19.6013 293.299 19.6071Z" fill="#CACACA"/>
<path d="M46.4821 12.308C49.8047 12.308 52.4981 9.55276 52.4981 6.154C52.4981 2.75524 49.8047 0 46.4821 0C43.1595 0 40.4661 2.75524 40.4661 6.154C40.4661 9.55276 43.1595 12.308 46.4821 12.308Z" fill="#B8B7BB"/>
<path d="M67.2648 12.308C70.5874 12.308 73.2808 9.55276 73.2808 6.154C73.2808 2.75524 70.5874 0 67.2648 0C63.9422 0 61.2488 2.75524 61.2488 6.154C61.2488 9.55276 63.9422 12.308 67.2648 12.308Z" fill="#B8B7BB"/>
<path d="M88.0474 12.308C91.37 12.308 94.0634 9.55276 94.0634 6.154C94.0634 2.75524 91.37 0 88.0474 0C84.7248 0 82.0314 2.75524 82.0314 6.154C82.0314 9.55276 84.7248 12.308 88.0474 12.308Z" fill="#B8B7BB"/>
<path d="M280.786 1.52533H266.023C265.731 1.53116 265.452 1.65157 265.247 1.8607C265.042 2.06983 264.927 2.35101 264.927 2.64386C264.927 2.93672 265.042 3.21789 265.247 3.42702C265.452 3.63615 265.731 3.75656 266.023 3.76239H280.786C281.079 3.75656 281.357 3.63615 281.562 3.42702C281.767 3.21789 281.882 2.93672 281.882 2.64386C281.882 2.35101 281.767 2.06983 281.562 1.8607C281.357 1.65157 281.079 1.53116 280.786 1.52533Z" fill="#B8B7BB"/>
<path d="M280.786 5.72394H266.023C265.731 5.72977 265.452 5.85018 265.247 6.05931C265.042 6.26844 264.927 6.54962 264.927 6.84247C264.927 7.13532 265.042 7.4165 265.247 7.62563C265.452 7.83476 265.731 7.95517 266.023 7.961H280.786C281.079 7.95517 281.357 7.83476 281.562 7.62563C281.767 7.4165 281.882 7.13532 281.882 6.84247C281.882 6.54962 281.767 6.26844 281.562 6.05931C281.357 5.85018 281.079 5.72977 280.786 5.72394Z" fill="#B8B7BB"/>
<path d="M280.786 9.91705H266.023C265.731 9.92288 265.452 10.0433 265.247 10.2524C265.042 10.4615 264.927 10.7427 264.927 11.0356C264.927 11.3284 265.042 11.6096 265.247 11.8187C265.452 12.0279 265.731 12.1483 266.023 12.1541H280.786C281.079 12.1483 281.357 12.0279 281.562 11.8187C281.767 11.6096 281.882 11.3284 281.882 11.0356C281.882 10.7427 281.767 10.4615 281.562 10.2524C281.357 10.0433 281.079 9.92288 280.786 9.91705Z" fill="#B8B7BB"/>
<path d="M101.617 205.932L101.979 75.2036C101.989 72.5577 103.048 70.0239 104.923 68.1582C106.798 66.2924 109.336 65.247 111.98 65.2514L210.646 65.5251C213.291 65.5354 215.823 66.5949 217.687 68.471C219.552 70.3472 220.597 72.8868 220.592 75.5327L220.23 206.261C220.22 208.907 219.161 211.44 217.286 213.306C215.411 215.172 212.873 216.217 210.229 216.213L111.563 215.939C108.919 215.929 106.386 214.87 104.522 212.993C102.657 211.117 101.612 208.578 101.617 205.932Z" fill="#E6E6E6"/>
<path d="M109.295 166.467L109.527 82.4235C109.537 79.9455 110.529 77.5725 112.285 75.8251C114.041 74.0778 116.418 73.0987 118.894 73.1029L203.689 73.3381C206.166 73.3477 208.537 74.3399 210.284 76.0969C212.03 77.854 213.008 80.2325 213.004 82.7106L212.682 199.041C212.672 201.519 211.681 203.892 209.925 205.639C208.169 207.387 205.792 208.366 203.315 208.361L150.786 208.216C139.755 208.173 129.192 203.753 121.413 195.926C113.635 188.1 109.277 177.505 109.295 166.467Z" fill="white"/>
<path d="M194.164 138.711H128.045C126.993 138.711 125.984 138.293 125.24 137.548C124.496 136.804 124.078 135.794 124.078 134.741C124.078 133.688 124.496 132.679 125.24 131.934C125.984 131.19 126.993 130.772 128.045 130.772H194.164C195.216 130.772 196.225 131.19 196.969 131.934C197.713 132.679 198.131 133.688 198.131 134.741C198.131 135.794 197.713 136.804 196.969 137.548C196.225 138.293 195.216 138.711 194.164 138.711Z" fill="#6C63FF"/>
<path d="M142.591 116.941H128.045C126.993 116.941 125.984 116.523 125.24 115.778C124.496 115.034 124.078 114.024 124.078 112.971C124.078 111.919 124.496 110.909 125.24 110.165C125.984 109.42 126.993 109.002 128.045 109.002H142.591C143.644 109.002 144.653 109.42 145.397 110.165C146.141 110.909 146.559 111.919 146.559 112.971C146.559 114.024 146.141 115.034 145.397 115.778C144.653 116.523 143.644 116.941 142.591 116.941Z" fill="#6C63FF"/>
<path d="M194.164 173.614H128.045C126.993 173.614 125.984 173.196 125.24 172.451C124.496 171.707 124.078 170.697 124.078 169.644C124.078 168.591 124.496 167.582 125.24 166.837C125.984 166.093 126.993 165.675 128.045 165.675H194.164C195.216 165.675 196.225 166.093 196.969 166.837C197.713 167.582 198.131 168.591 198.131 169.644C198.131 170.697 197.713 171.707 196.969 172.451C196.225 173.196 195.216 173.614 194.164 173.614Z" fill="#6C63FF"/>
<path d="M194.164 156.162H128.045C126.993 156.162 125.984 155.744 125.24 155C124.496 154.255 124.078 153.246 124.078 152.193C124.078 151.14 124.496 150.13 125.24 149.386C125.984 148.641 126.993 148.223 128.045 148.223H194.164C195.216 148.223 196.225 148.641 196.969 149.386C197.713 150.13 198.131 151.14 198.131 152.193C198.131 153.246 197.713 154.255 196.969 155C196.225 155.744 195.216 156.162 194.164 156.162Z" fill="#6C63FF"/>
<path d="M15.7851 258C24.503 258 31.5703 250.928 31.5703 242.205C31.5703 233.481 24.503 226.41 15.7851 226.41C7.06725 226.41 0 233.481 0 242.205C0 250.928 7.06725 258 15.7851 258Z" fill="#6C63FF"/>
<path d="M13.6318 250.426C13.3592 250.426 13.0904 250.362 12.8466 250.24C12.6028 250.118 12.3907 249.941 12.2272 249.723L7.92082 243.977C7.78217 243.792 7.68123 243.582 7.62378 243.359C7.56633 243.135 7.55348 242.902 7.58599 242.674C7.6185 242.445 7.69573 242.225 7.81324 242.026C7.93076 241.828 8.08626 241.654 8.27086 241.516C8.45547 241.377 8.66555 241.276 8.88909 241.219C9.11264 241.162 9.34528 241.149 9.57369 241.182C9.8021 241.215 10.0218 241.292 10.2203 241.41C10.4187 241.528 10.592 241.684 10.7302 241.869L13.5476 245.627L20.7838 234.766C21.0423 234.379 21.4439 234.11 21.9004 234.019C22.3568 233.928 22.8307 234.022 23.2179 234.28C23.6052 234.539 23.8741 234.94 23.9656 235.397C24.0571 235.854 23.9636 236.328 23.7058 236.716L15.0929 249.643C14.9371 249.877 14.7276 250.07 14.4818 250.206C14.2361 250.342 13.9614 250.417 13.6807 250.425C13.6644 250.425 13.6481 250.426 13.6318 250.426Z" fill="white"/>
<path d="M15.9259 207.595H14.7894V211.006H15.9259V207.595Z" fill="#B8B7BB"/>
<path d="M15.9259 201.081H14.7894V194.567H15.9259V201.081ZM15.9259 188.053H14.7894V181.539H15.9259V188.053ZM15.9259 175.026H14.7894V168.511H15.9259V175.026ZM15.9259 161.998H14.7894V155.484H15.9259V161.998ZM15.9259 148.97H14.7894V142.456H15.9259V148.97Z" fill="#B8B7BB"/>
<path d="M15.9261 135.942H14.7897V131.962H18.7672V133.1H15.9261V135.942Z" fill="#B8B7BB"/>
<path d="M72.4083 133.099H65.7031V131.962H72.4083V133.099ZM58.998 133.099H52.2928V131.962H58.998V133.099ZM45.5876 133.099H38.8825V131.962H45.5876V133.099ZM32.1773 133.099H25.4722V131.962H32.1773V133.099Z" fill="#B8B7BB"/>
<path d="M82.5231 131.962H79.1138V133.099H82.5231V131.962Z" fill="#B8B7BB"/>
<path d="M381.469 173.282H380.332V176.693H381.469V173.282Z" fill="#B8B7BB"/>
<path d="M381.469 165.814H380.332V158.346H381.469V165.814ZM381.469 150.878H380.332V143.411H381.469V150.878Z" fill="#B8B7BB"/>
<path d="M381.469 135.942H380.332V133.1H377.491V131.962H381.469V135.942Z" fill="#B8B7BB"/>
<path d="M370.427 133.099H363.363V131.962H370.427V133.099ZM356.299 133.099H349.235V131.962H356.299V133.099ZM342.171 133.099H335.107V131.962H342.171V133.099ZM328.043 133.099H320.979V131.962H328.043V133.099ZM313.916 133.099H306.851V131.962H313.916L313.916 133.099ZM299.787 133.099H292.724V131.962H299.787V133.099ZM285.66 133.099H278.596V131.962H285.66V133.099ZM271.532 133.099H264.468V131.962H271.532V133.099ZM257.404 133.099H250.34V131.962H257.404V133.099Z" fill="#B8B7BB"/>
<path d="M243.276 131.962H239.867V133.099H243.276V131.962Z" fill="#B8B7BB"/>
<path d="M381.258 218.199C389.975 218.199 397.043 211.128 397.043 202.404C397.043 193.681 389.975 186.609 381.258 186.609C372.54 186.609 365.472 193.681 365.472 202.404C365.472 211.128 372.54 218.199 381.258 218.199Z" fill="#6C63FF"/>
<path d="M384.363 202.404L387.468 199.297C387.879 198.885 388.109 198.326 388.108 197.744C388.107 197.162 387.876 196.604 387.465 196.193C387.054 195.781 386.496 195.55 385.915 195.549C385.333 195.549 384.775 195.779 384.363 196.19L381.258 199.297L378.152 196.19C377.74 195.779 377.182 195.549 376.601 195.549C376.019 195.55 375.462 195.781 375.05 196.193C374.639 196.604 374.408 197.162 374.407 197.744C374.407 198.326 374.637 198.885 375.047 199.297L378.152 202.404L375.047 205.512C374.842 205.715 374.679 205.958 374.568 206.224C374.457 206.491 374.399 206.778 374.399 207.067C374.398 207.356 374.455 207.642 374.565 207.91C374.675 208.177 374.837 208.42 375.042 208.624C375.246 208.828 375.489 208.991 375.756 209.101C376.023 209.211 376.309 209.268 376.598 209.268C376.887 209.267 377.173 209.21 377.44 209.098C377.707 208.987 377.949 208.824 378.152 208.619L381.258 205.512L384.363 208.619C384.567 208.824 384.809 208.987 385.075 209.098C385.342 209.21 385.628 209.267 385.917 209.268C386.206 209.268 386.492 209.211 386.759 209.101C387.026 208.991 387.269 208.828 387.473 208.624C387.678 208.42 387.84 208.177 387.95 207.91C388.061 207.642 388.117 207.356 388.117 207.067C388.116 206.778 388.059 206.491 387.947 206.224C387.836 205.958 387.673 205.715 387.468 205.512L384.363 202.404Z" fill="white"/>
<path d="M336.969 107.895L340.378 128.144L372.766 110.738L336.969 107.895Z" fill="#2F2E41"/>
<path d="M333.099 233.803L326.314 233.526L324.153 207.207L334.167 207.616L333.099 233.803Z" fill="#FFB6B6"/>
<path d="M333.559 158.498C345.867 154.744 348.393 138.691 355.152 135.187C355.134 126.708 355.475 100.417 347.017 100.917C342.307 101.196 316.063 149.264 314.938 157.228C312.851 172.003 323.995 209.713 322.701 212.304L335.642 213.123L335.718 212.104C335.923 209.339 337.986 201.004 335.633 199.54L334.741 198.986C334.749 196.111 335.376 191.215 332.785 189.973C332.752 189.958 332.723 189.935 332.699 189.907C332.675 189.879 332.658 189.847 332.647 189.812C332.637 189.777 332.634 189.74 332.639 189.704C332.644 189.668 332.656 189.633 332.675 189.602L333.559 158.498Z" fill="#2F2E41"/>
<path d="M336.595 239.691L332.058 239.959L330.995 235.72L329.173 240.129L317.139 240.839C316.563 240.873 315.99 240.722 315.505 240.407C315.02 240.092 314.649 239.631 314.445 239.09C314.241 238.549 314.215 237.957 314.371 237.4C314.527 236.844 314.856 236.351 315.312 235.995L324.53 228.787L324.275 224.454L334.418 224.461L336.595 239.691Z" fill="#2F2E41"/>
<path d="M384.815 186.369L391.584 186.918L396.919 161.057L386.93 160.246L384.815 186.369Z" fill="#FFB6B6"/>
<path d="M382.162 120.828C376.091 131.503 365.232 134.051 353.971 135.919C349.075 128.999 341.612 119.352 348.795 114.856C352.795 112.351 387.471 92.0929 392.824 98.0924C406.799 113.756 396.829 164.161 397.688 163.047L386.618 162.886L385.966 162.099C385.098 161.052 384.534 159.787 384.334 158.442C384.133 157.097 384.305 155.722 384.83 154.468L385.236 153.499C384.417 152.353 383.94 150.999 383.859 149.593C383.778 148.187 384.098 146.787 384.78 145.555L384.92 145.302L382.162 120.828Z" fill="#2F2E41"/>
<path d="M384.638 176.937L394.707 178.161L393.928 182.431L402.205 190.705C402.614 191.114 402.881 191.642 402.969 192.214C403.056 192.785 402.958 193.37 402.69 193.882C402.422 194.394 401.997 194.807 401.478 195.061C400.959 195.314 400.372 195.395 399.803 195.291L387.944 193.126L386.671 188.528L385.102 192.607L380.631 191.79L384.638 176.937Z" fill="#2F2E41"/>
<path d="M358.327 35.6851H353.681C352.733 35.6851 351.798 35.9153 350.958 36.3559C350.117 36.7965 349.396 37.4344 348.856 38.215L345.492 43.0767L337.111 44.6019C334.2 46.401 332.006 49.1596 330.909 52.4026C329.812 55.6457 329.879 59.1701 331.099 62.369C337.029 77.8902 339.892 106.982 334.128 119.835C334.128 119.835 369.097 123.005 377.88 112.443C386.664 101.882 379.585 50.4682 379.585 50.4682L366.516 43.0767L363.153 38.2151C362.612 37.4345 361.891 36.7966 361.051 36.3559C360.21 35.9153 359.276 35.6851 358.327 35.6851Z" fill="#6C63FF"/>
<path d="M380 126.529C380.393 126.114 380.69 125.619 380.871 125.077C381.052 124.535 381.112 123.96 381.047 123.392C380.982 122.824 380.793 122.278 380.494 121.791C380.195 121.304 379.793 120.889 379.317 120.574L386.972 95.386L378.449 90.2688L373.719 121.9C373.244 122.737 373.092 123.719 373.292 124.66C373.492 125.601 374.031 126.436 374.805 127.006C375.579 127.577 376.535 127.843 377.493 127.755C378.45 127.667 379.342 127.231 380 126.529Z" fill="#FFB6B6"/>
<path d="M387.54 98.229L377.312 94.2489L377.749 89.1389L365.596 62.5202C364.996 61.2044 364.692 59.7724 364.707 58.3259C364.721 56.8795 365.054 55.454 365.681 54.1506C366.308 52.8472 367.214 51.698 368.335 50.7845C369.456 49.8709 370.764 49.2155 372.166 48.8647C374.7 48.234 377.381 48.6348 379.62 49.9793C381.859 51.3238 383.473 53.502 384.109 56.0361L392.096 88.0148C393.02 92.9783 391.975 96.6853 387.54 98.229Z" fill="#6C63FF"/>
<path d="M373.392 20.1913C373.392 15.5845 371.563 11.1663 368.307 7.90876C365.052 4.65123 360.636 2.82117 356.032 2.82117C351.429 2.82117 347.013 4.65123 343.758 7.90876C340.502 11.1663 338.673 15.5845 338.673 20.1913V31.0796C338.674 31.6976 338.92 32.2901 339.357 32.7271C339.793 33.1641 340.385 33.4099 341.003 33.4108H341.429C341.921 32 342.221 30.5293 342.321 29.0384C343.218 30.3823 343.9 31.8573 344.344 33.4108H371.056C371.674 33.4102 372.267 33.1645 372.705 32.7277C373.143 32.2908 373.389 31.6982 373.392 31.0796C374.795 28.214 375.426 24.9276 373.392 20.1913Z" fill="#2F2E41"/>
<path d="M355.333 33.3035C362.362 33.3035 368.06 27.602 368.06 20.5688C368.06 13.5357 362.362 7.83417 355.333 7.83417C348.304 7.83417 342.606 13.5357 342.606 20.5688C342.606 27.602 348.304 33.3035 355.333 33.3035Z" fill="#FFB8B8"/>
<path d="M342.257 20.5197C342.135 20.3793 342.045 20.2143 341.993 20.036C341.941 19.8577 341.927 19.6702 341.954 19.4863L343.461 8.98178C343.491 8.76804 343.574 8.56513 343.702 8.3914C343.83 8.21768 343.999 8.07863 344.194 7.98683C351.889 4.38322 359.692 4.37866 367.387 7.97318C367.591 8.07001 367.767 8.21819 367.897 8.40324C368.026 8.58829 368.106 8.80387 368.128 9.0289L369.702 17.2727C369.719 17.4526 369.699 17.634 369.642 17.8054C369.585 17.9768 369.493 18.1344 369.371 18.2682C369.126 18.5376 368.784 24.4613 368.42 24.4613C368.727 20.9305 367.984 19.2412 365.292 20.9668C365.046 20.9662 364.805 20.8956 364.597 20.7632C364.389 20.6308 364.223 20.4421 364.118 20.219L363.017 17.8574C362.945 17.7045 362.826 17.5789 362.678 17.4996C362.529 17.4204 362.358 17.3917 362.192 17.4179C362.025 17.4441 361.871 17.5239 361.754 17.6451C361.637 17.7663 361.562 17.9224 361.541 18.0898L361.324 19.8311C361.284 20.1445 361.132 20.4327 360.895 20.6418C360.659 20.8509 360.354 20.9664 360.038 20.9668C355.541 23.1997 349.643 22.5988 343.236 20.9668C343.05 20.9668 342.867 20.9269 342.698 20.8498C342.529 20.7727 342.379 20.6601 342.257 20.5197Z" fill="#2F2E41"/>
<path d="M365.481 91.372H344.623C343.909 91.3712 343.224 91.0869 342.719 90.5816C342.214 90.0762 341.93 89.391 341.929 88.6763V66.2413C341.93 65.5266 342.214 64.8414 342.719 64.336C343.224 63.8306 343.908 63.5463 344.623 63.5455H365.481C366.196 63.5463 366.88 63.8306 367.385 64.336C367.89 64.8414 368.174 65.5266 368.175 66.2413V88.6763C368.174 89.391 367.89 90.0762 367.385 90.5816C366.88 91.0869 366.196 91.3712 365.481 91.372Z" fill="#3F3D56"/>
<path d="M345.21 68.3917C346.072 68.3917 346.772 67.6918 346.772 66.8284C346.772 65.965 346.072 65.2651 345.21 65.2651C344.347 65.2651 343.647 65.965 343.647 66.8284C343.647 67.6918 344.347 68.3917 345.21 68.3917Z" fill="#E6E6E6"/>
<path d="M345.209 67.7664C345.727 67.7664 346.147 67.3465 346.147 66.8285C346.147 66.3104 345.727 65.8905 345.209 65.8905C344.692 65.8905 344.272 66.3104 344.272 66.8285C344.272 67.3465 344.692 67.7664 345.209 67.7664Z" fill="#3F3D56"/>
<path d="M369.181 76.2513C368.718 76.7666 368.147 77.1738 367.509 77.4444C366.871 77.715 366.182 77.8424 365.49 77.8175C364.797 77.7927 364.119 77.6162 363.502 77.3006C362.885 76.9849 362.345 76.5378 361.919 75.9907L343.219 81.1715L340.378 74.9171L362.99 69.0903C363.956 68.436 365.128 68.159 366.285 68.3117C367.441 68.4645 368.501 69.0364 369.264 69.9191C370.028 70.8018 370.441 71.9339 370.425 73.101C370.41 74.2681 369.967 75.389 369.181 76.2513Z" fill="#FFB8B8"/>
<path d="M345.44 81.3325L340.193 83.0085C334.487 89.0416 332.467 84.6638 325.742 84.2108C324.477 84.1256 323.487 83.0862 322.799 81.122C321.863 78.3599 321.956 75.3522 323.062 72.6536L332.404 49.2259L336.314 46.0203L341.774 52.5668L337.582 70.5648L344.464 74.0743L345.44 81.3325Z" fill="#6C63FF"/>
</g>
<defs>
<clipPath id="clip0_13_1572">
<rect width="403" height="258" fill="white"/>
</clipPath>
</defs>
</svg>
