<svg width="32" height="32" viewBox="0 0 32 32" fill="none" xmlns="http://www.w3.org/2000/svg">
<path d="M11.5 16C11.5002 19.3039 10.6615 22.5538 9.06254 25.445C8.96701 25.6174 8.83846 25.7692 8.68423 25.8919C8.53001 26.0146 8.35313 26.1057 8.1637 26.16C7.97427 26.2143 7.77599 26.2308 7.58019 26.2085C7.38439 26.1862 7.1949 26.1255 7.02254 26.03C6.67445 25.8371 6.41726 25.5137 6.30755 25.1312C6.25322 24.9417 6.23675 24.7435 6.25905 24.5477C6.28136 24.3519 6.34201 24.1624 6.43754 23.99C7.79069 21.5443 8.50038 18.795 8.50004 16C8.50018 14.5568 8.91671 13.1443 9.69965 11.9319C10.4826 10.7195 11.5987 9.75881 12.9141 9.16498C14.2295 8.57116 15.6883 8.36947 17.1154 8.5841C18.5426 8.79873 19.8775 9.42056 20.96 10.375C21.1078 10.5053 21.2284 10.6635 21.315 10.8405C21.4016 11.0174 21.4525 11.2097 21.4648 11.4063C21.4771 11.6029 21.4506 11.8001 21.3867 11.9864C21.3228 12.1728 21.2229 12.3448 21.0925 12.4925C20.9622 12.6402 20.804 12.7609 20.6271 12.8475C20.4501 12.9341 20.2579 12.985 20.0612 12.9973C19.8646 13.0096 19.6675 12.9831 19.4811 12.9192C19.2947 12.8553 19.1228 12.7553 18.975 12.625C18.3255 12.0527 17.5246 11.6798 16.6685 11.5512C15.8124 11.4226 14.9373 11.5437 14.1483 11.9C13.3592 12.2562 12.6897 12.8325 12.22 13.5597C11.7503 14.287 11.5003 15.1343 11.5 16ZM22.02 15H22C21.6065 14.9999 21.2287 15.1545 20.9481 15.4305C20.6675 15.7064 20.5066 16.0815 20.5 16.475C20.4473 20.0294 19.7264 23.5421 18.375 26.83C18.2953 27.013 18.2529 27.21 18.2502 27.4096C18.2476 27.6092 18.2848 27.8073 18.3597 27.9923C18.4346 28.1773 18.5457 28.3455 18.6865 28.487C18.8272 28.6286 18.9948 28.7406 19.1794 28.8165C19.3639 28.8925 19.5618 28.9308 19.7614 28.9293C19.961 28.9278 20.1583 28.8865 20.3417 28.8078C20.5251 28.729 20.691 28.6145 20.8296 28.4709C20.9682 28.3272 21.0767 28.1574 21.1488 27.9713C22.6441 24.3372 23.4417 20.4542 23.5 16.525C23.5034 16.3275 23.4676 16.1313 23.3949 15.9476C23.3222 15.764 23.2139 15.5965 23.0762 15.4548C22.9386 15.3131 22.7743 15.2 22.5929 15.1219C22.4114 15.0439 22.2163 15.0024 22.0188 15H22.02ZM14.2425 25.1513C13.8854 24.9788 13.4744 24.9548 13.0996 25.0846C12.7248 25.2144 12.4166 25.4873 12.2425 25.8438C12.0713 26.195 11.8863 26.55 11.695 26.8963C11.5996 27.0686 11.539 27.2581 11.5168 27.4539C11.4946 27.6496 11.5111 27.8479 11.5655 28.0372C11.6199 28.2266 11.711 28.4034 11.8337 28.5576C11.9564 28.7117 12.1083 28.8402 12.2807 28.9356C12.453 29.0311 12.6425 29.0917 12.8383 29.1139C13.034 29.1361 13.2323 29.1196 13.4216 29.0652C13.611 29.0108 13.7878 28.9197 13.942 28.7969C14.0961 28.6742 14.2246 28.5224 14.32 28.35C14.5375 27.9575 14.7463 27.5563 14.945 27.1563C15.0308 26.9785 15.0807 26.7855 15.0917 26.5884C15.1028 26.3913 15.0748 26.1939 15.0094 26.0077C14.944 25.8214 14.8425 25.6498 14.7107 25.5029C14.5789 25.3559 14.4194 25.2364 14.2413 25.1513H14.2425ZM16 14.5C15.6022 14.5 15.2207 14.658 14.9394 14.9393C14.6581 15.2206 14.5 15.6022 14.5 16C14.5007 17.7363 14.3015 19.4668 13.9063 21.1575C13.8156 21.5447 13.8823 21.9521 14.0919 22.2901C14.3014 22.6281 14.6366 22.8691 15.0238 22.96C15.1364 22.9868 15.2518 23.0002 15.3675 23C15.7055 22.9996 16.0335 22.8851 16.2983 22.675C16.5631 22.4649 16.7491 22.1716 16.8263 21.8425C17.2749 19.9274 17.5009 17.9669 17.5 16C17.5 15.6022 17.342 15.2206 17.0607 14.9393C16.7794 14.658 16.3979 14.5 16 14.5ZM16 2.5C14.6659 2.49896 13.339 2.69568 12.0625 3.08375C11.8738 3.14121 11.6982 3.23528 11.5457 3.3606C11.3933 3.48592 11.2671 3.64004 11.1742 3.81415C11.0814 3.98826 11.0237 4.17895 11.0045 4.37534C10.9854 4.57174 11.0051 4.76998 11.0625 4.95875C11.1786 5.34 11.4413 5.65954 11.7929 5.84708C11.967 5.93994 12.1577 5.99759 12.3541 6.01675C12.5505 6.03592 12.7488 6.01621 12.9375 5.95875C14.5068 5.48189 16.166 5.37901 17.7822 5.65836C19.3983 5.9377 20.9267 6.59151 22.2449 7.56746C23.5631 8.5434 24.6345 9.81437 25.3734 11.2787C26.1123 12.7429 26.4981 14.3599 26.5 16C26.5012 18.5797 26.2144 21.1514 25.645 23.6675C25.6014 23.8596 25.5961 24.0585 25.6293 24.2527C25.6626 24.4469 25.7338 24.6327 25.8388 24.7994C25.9439 24.966 26.0807 25.1104 26.2416 25.2242C26.4024 25.338 26.5841 25.419 26.7763 25.4625C26.8853 25.4878 26.9969 25.5004 27.1088 25.5C27.4488 25.5 27.7787 25.3844 28.0444 25.1723C28.3102 24.9602 28.4959 24.6641 28.5713 24.3325C29.1894 21.5981 29.5009 18.8034 29.5 16C29.4961 12.4208 28.0725 8.98933 25.5416 6.45845C23.0107 3.92757 19.5792 2.50397 16 2.5ZM8.55879 6.4675C8.41944 6.32766 8.25385 6.21671 8.07152 6.141C7.88919 6.06529 7.69372 6.02632 7.49629 6.02632C7.29887 6.02632 7.10339 6.06529 6.92107 6.141C6.73874 6.21671 6.57315 6.32766 6.43379 6.4675C5.1817 7.71837 4.1895 9.20464 3.51437 10.8407C2.83923 12.4767 2.4945 14.2302 2.50004 16C2.50411 17.5101 2.17952 19.003 1.54879 20.375C1.46116 20.5548 1.41035 20.7502 1.39936 20.9499C1.38837 21.1496 1.41742 21.3494 1.48479 21.5377C1.55217 21.726 1.65651 21.8989 1.79168 22.0463C1.92686 22.1936 2.09014 22.3125 2.27192 22.3958C2.4537 22.4792 2.65031 22.5253 2.85019 22.5316C3.05007 22.5379 3.24918 22.5041 3.43581 22.4323C3.62245 22.3604 3.79284 22.252 3.93696 22.1134C4.08108 21.9748 4.19603 21.8087 4.27504 21.625C5.08642 19.861 5.50441 17.9416 5.50004 16C5.49615 14.6237 5.76476 13.2602 6.29038 11.9882C6.816 10.7162 7.58823 9.56085 8.56254 8.58875C8.84333 8.30696 9.00068 7.92516 8.99998 7.52735C8.99927 7.12955 8.84058 6.74831 8.55879 6.4675Z" fill="#343330"/>
</svg>
