<svg width="17" height="17" viewBox="0 0 17 17" fill="none" xmlns="http://www.w3.org/2000/svg">
<path d="M10.2125 6.7875C10.1251 6.7004 10.0558 6.59691 10.0084 6.48295C9.96112 6.369 9.93677 6.24683 9.93677 6.12344C9.93677 6.00005 9.96112 5.87787 10.0084 5.76392C10.0558 5.64996 10.1251 5.54647 10.2125 5.45937L12.3594 3.3125H11.5C11.2514 3.3125 11.0129 3.21373 10.8371 3.03791C10.6613 2.8621 10.5625 2.62364 10.5625 2.375C10.5625 2.12636 10.6613 1.8879 10.8371 1.71209C11.0129 1.53627 11.2514 1.4375 11.5 1.4375H14.625C14.8736 1.4375 15.1121 1.53627 15.2879 1.71209C15.4637 1.8879 15.5625 2.12636 15.5625 2.375V5.5C15.5625 5.74864 15.4637 5.9871 15.2879 6.16291C15.1121 6.33873 14.8736 6.4375 14.625 6.4375C14.3764 6.4375 14.1379 6.33873 13.9621 6.16291C13.7863 5.9871 13.6875 5.74864 13.6875 5.5V4.64062L11.5383 6.78984C11.4512 6.87724 11.3477 6.94659 11.2337 6.99391C11.1198 7.04123 10.9976 7.06558 10.8742 7.06558C10.7508 7.06558 10.6287 7.04123 10.5147 6.99391C10.4008 6.94659 10.2973 6.87724 10.2102 6.78984L10.2125 6.7875ZM16.8008 12.3422C16.6518 13.4763 16.0951 14.5174 15.2347 15.271C14.3742 16.0246 13.2688 16.4393 12.125 16.4375C5.74922 16.4375 0.562506 11.2508 0.562506 4.875C0.560733 3.73117 0.975386 2.62581 1.72902 1.76535C2.48265 0.904901 3.52373 0.348198 4.65782 0.199218C4.99197 0.158614 5.33032 0.226732 5.62272 0.393481C5.91513 0.560229 6.14605 0.816737 6.28126 1.125L7.93047 4.80703C7.93223 4.81186 7.93432 4.81656 7.93672 4.82109C8.03808 5.05798 8.07928 5.31626 8.05665 5.57293C8.03402 5.8296 7.94827 6.07668 7.80704 6.29219C7.78694 6.32359 7.76475 6.3536 7.74063 6.38203L6.25157 8.15625C6.80313 9.15937 7.85313 10.2 8.86797 10.7508L10.6109 9.26641C10.6389 9.24298 10.6681 9.22108 10.6984 9.20078C10.9147 9.05567 11.1639 8.96718 11.4233 8.94343C11.6826 8.91968 11.9438 8.96143 12.1828 9.06484L12.1969 9.07109L15.875 10.7187C16.1832 10.8541 16.4396 11.085 16.6064 11.3774C16.7731 11.6698 16.8413 12.008 16.8008 12.3422ZM14.9016 12.3375L11.6203 10.868L9.86797 12.3578C9.84043 12.3817 9.81147 12.4038 9.78126 12.4242C9.556 12.5736 9.29586 12.662 9.02624 12.6807C8.75662 12.6995 8.48674 12.648 8.24297 12.5312C6.7211 11.7969 5.20469 10.2906 4.46876 8.78125C4.35172 8.53857 4.29943 8.26976 4.31695 8.00091C4.33447 7.73206 4.42122 7.47231 4.56876 7.24687C4.58912 7.21546 4.61157 7.18545 4.63594 7.15703L6.13282 5.38281L4.66251 2.10156C4.03092 2.24075 3.46591 2.59168 3.06121 3.09614C2.6565 3.6006 2.43643 4.22827 2.43751 4.875C2.44061 7.44333 3.46225 9.90558 5.27833 11.7217C7.09442 13.5378 9.55667 14.5594 12.125 14.5625C12.7723 14.5643 13.4007 14.3445 13.9058 13.9398C14.4109 13.535 14.7623 12.9696 14.9016 12.3375Z" fill="#6C63FF"/>
</svg>
