<svg width="11" height="8" viewBox="0 0 11 8" fill="none" xmlns="http://www.w3.org/2000/svg">
<path d="M9.89795 1.77297L3.89795 7.77297C3.84569 7.82541 3.78359 7.86702 3.71522 7.89541C3.64685 7.9238 3.57354 7.93842 3.49951 7.93842C3.42548 7.93842 3.35217 7.9238 3.2838 7.89541C3.21543 7.86702 3.15333 7.82541 3.10107 7.77297L0.476073 5.14797C0.42375 5.09565 0.382244 5.03353 0.353927 4.96517C0.32561 4.8968 0.311035 4.82353 0.311035 4.74954C0.311035 4.67554 0.32561 4.60227 0.353927 4.5339C0.382244 4.46554 0.42375 4.40342 0.476073 4.3511C0.528397 4.29877 0.590514 4.25727 0.658878 4.22895C0.727242 4.20063 0.800514 4.18606 0.874511 4.18606C0.948508 4.18606 1.02178 4.20063 1.09014 4.22895C1.15851 4.25727 1.22062 4.29877 1.27295 4.3511L3.49998 6.57813L9.10201 0.977035C9.20768 0.871362 9.351 0.811996 9.50045 0.811996C9.64989 0.811996 9.79321 0.871362 9.89889 0.977035C10.0046 1.08271 10.0639 1.22603 10.0639 1.37547C10.0639 1.52492 10.0046 1.66824 9.89889 1.77391L9.89795 1.77297Z" fill="white"/>
</svg>
