<svg width="20" height="18" viewBox="0 0 20 18" fill="none" xmlns="http://www.w3.org/2000/svg">
<path d="M6.90625 11.25C8.92554 11.25 10.5625 9.61304 10.5625 7.59375C10.5625 5.57446 8.92554 3.9375 6.90625 3.9375C4.88696 3.9375 3.25 5.57446 3.25 7.59375C3.25 9.61304 4.88696 11.25 6.90625 11.25Z" stroke="white" stroke-width="1.5" stroke-linecap="round" stroke-linejoin="round"/>
<path d="M1.71924 14.0625C2.2811 13.1986 3.04983 12.4887 3.95564 11.9973C4.86146 11.5059 5.87567 11.2485 6.90619 11.2485C7.93672 11.2485 8.95093 11.5059 9.85674 11.9973C10.7626 12.4887 11.5313 13.1986 12.0931 14.0625" stroke="white" stroke-width="1.5" stroke-linecap="round" stroke-linejoin="round"/>
<path d="M13.0938 11.25C14.1242 11.2494 15.1385 11.5064 16.0444 11.9976C16.9503 12.4888 17.719 13.1986 18.2807 14.0625" stroke="white" stroke-width="1.5" stroke-linecap="round" stroke-linejoin="round"/>
<path d="M11.7363 4.19766C12.2365 3.99818 12.7745 3.91163 13.312 3.94419C13.8494 3.97676 14.3731 4.12764 14.8455 4.38605C15.3179 4.64445 15.7274 5.00401 16.0447 5.43903C16.362 5.87405 16.5794 6.37379 16.6812 6.90253C16.783 7.43128 16.7667 7.97599 16.6336 8.49773C16.5004 9.01947 16.2537 9.50536 15.911 9.92069C15.5683 10.336 15.1381 10.6705 14.6512 10.9003C14.1642 11.1301 13.6325 11.2495 13.0941 11.25" stroke="white" stroke-width="1.5" stroke-linecap="round" stroke-linejoin="round"/>
</svg>
