<svg width="18" height="18" viewBox="0 0 18 18" fill="none" xmlns="http://www.w3.org/2000/svg">
<path d="M8.40289 7.6282C8.48128 7.70686 8.57442 7.76927 8.67698 7.81186C8.77954 7.85445 8.8895 7.87637 9.00055 7.87637C9.1116 7.87637 9.22155 7.85445 9.32411 7.81186C9.42667 7.76927 9.51982 7.70686 9.5982 7.6282L12.2701 4.95633C12.3487 4.87794 12.4112 4.78479 12.4537 4.68223C12.4963 4.57968 12.5182 4.46972 12.5182 4.35867C12.5182 4.24762 12.4963 4.13766 12.4537 4.0351C12.4112 3.93254 12.3487 3.8394 12.2701 3.76101L9.5982 1.08914C9.51982 1.01048 9.42667 0.948066 9.32411 0.90548C9.22155 0.862894 9.1116 0.840973 9.00055 0.840973C8.8895 0.840973 8.77954 0.862894 8.67698 0.90548C8.57442 0.948066 8.48128 1.01048 8.40289 1.08914L5.73102 3.76101C5.65236 3.8394 5.58994 3.93254 5.54736 4.0351C5.50477 4.13766 5.48285 4.24762 5.48285 4.35867C5.48285 4.46972 5.50477 4.57968 5.54736 4.68223C5.58994 4.78479 5.65236 4.87794 5.73102 4.95633L8.40289 7.6282ZM8.99984 2.88281L10.4764 4.35937L8.99984 5.83593L7.52328 4.35937L8.99984 2.88281ZM9.5968 10.3739C9.51841 10.2952 9.42527 10.2328 9.32271 10.1902C9.22015 10.1477 9.11019 10.1257 8.99914 10.1257C8.88809 10.1257 8.77814 10.1477 8.67558 10.1902C8.57302 10.2328 8.47987 10.2952 8.40149 10.3739L5.72961 13.0458C5.65095 13.1242 5.58854 13.2173 5.54595 13.3199C5.50337 13.4224 5.48145 13.5324 5.48145 13.6434C5.48145 13.7545 5.50337 13.8644 5.54595 13.967C5.58854 14.0696 5.65095 14.1627 5.72961 14.2411L8.40149 16.913C8.47987 16.9916 8.57302 17.054 8.67558 17.0966C8.77814 17.1392 8.88809 17.1611 8.99914 17.1611C9.11019 17.1611 9.22015 17.1392 9.32271 17.0966C9.42527 17.054 9.51841 16.9916 9.5968 16.913L12.2687 14.2411C12.3473 14.1627 12.4097 14.0696 12.4523 13.967C12.4949 13.8644 12.5168 13.7545 12.5168 13.6434C12.5168 13.5324 12.4949 13.4224 12.4523 13.3199C12.4097 13.2173 12.3473 13.1242 12.2687 13.0458L9.5968 10.3739ZM8.99984 15.1172L7.52328 13.6406L8.99984 12.1641L10.4764 13.6406L8.99984 15.1172ZM7.62805 8.40094L4.95617 5.72906C4.87779 5.6504 4.78464 5.58799 4.68208 5.5454C4.57952 5.50282 4.46957 5.4809 4.35852 5.4809C4.24747 5.4809 4.13751 5.50282 4.03495 5.5454C3.93239 5.58799 3.83925 5.6504 3.76086 5.72906L1.08899 8.40094C1.01033 8.47932 0.947913 8.57247 0.905328 8.67503C0.862742 8.77758 0.84082 8.88754 0.84082 8.99859C0.84082 9.10964 0.862742 9.2196 0.905328 9.32216C0.947913 9.42472 1.01033 9.51786 1.08899 9.59625L3.76086 12.2681C3.83925 12.3468 3.93239 12.4092 4.03495 12.4518C4.13751 12.4944 4.24747 12.5163 4.35852 12.5163C4.46957 12.5163 4.57952 12.4944 4.68208 12.4518C4.78464 12.4092 4.87779 12.3468 4.95617 12.2681L7.62805 9.59625C7.78627 9.43801 7.87516 9.22341 7.87516 8.99965C7.87516 8.77588 7.78627 8.56128 7.62805 8.40304V8.40094ZM4.35922 10.4766L2.88266 9L4.35922 7.52343L5.83578 9L4.35922 10.4766ZM16.9093 8.40094L14.2374 5.72906C14.159 5.6504 14.0659 5.58799 13.9633 5.5454C13.8608 5.50282 13.7508 5.4809 13.6398 5.4809C13.5287 5.4809 13.4188 5.50282 13.3162 5.5454C13.2136 5.58799 13.1205 5.6504 13.0421 5.72906L10.3702 8.40094C10.2916 8.47932 10.2292 8.57247 10.1866 8.67503C10.144 8.77758 10.1221 8.88754 10.1221 8.99859C10.1221 9.10964 10.144 9.2196 10.1866 9.32216C10.2292 9.42472 10.2916 9.51786 10.3702 9.59625L13.0421 12.2681C13.1205 12.3468 13.2136 12.4092 13.3162 12.4518C13.4188 12.4944 13.5287 12.5163 13.6398 12.5163C13.7508 12.5163 13.8608 12.4944 13.9633 12.4518C14.0659 12.4092 14.159 12.3468 14.2374 12.2681L16.9093 9.59625C17.0675 9.43801 17.1564 9.22341 17.1564 8.99965C17.1564 8.77588 17.0675 8.56128 16.9093 8.40304V8.40094ZM13.6405 10.4766L12.1639 9L13.6405 7.52343L15.117 9L13.6405 10.4766Z" fill="#F2F2F2"/>
</svg>
