<svg width="30" height="16" viewBox="0 0 30 16" fill="none" xmlns="http://www.w3.org/2000/svg">
<path d="M24.5 8C24.5 8.39782 24.342 8.77936 24.0607 9.06066C23.7794 9.34196 23.3978 9.5 23 9.5H7C6.60218 9.5 6.22064 9.34196 5.93934 9.06066C5.65804 8.77936 5.5 8.39782 5.5 8C5.5 7.60218 5.65804 7.22064 5.93934 6.93934C6.22064 6.65804 6.60218 6.5 7 6.5H23C23.3978 6.5 23.7794 6.65804 24.0607 6.93934C24.342 7.22064 24.5 7.60218 24.5 8ZM28 0.5H2C1.60218 0.5 1.22064 0.658035 0.93934 0.93934C0.658035 1.22064 0.5 1.60218 0.5 2C0.5 2.39782 0.658035 2.77936 0.93934 3.06066C1.22064 3.34196 1.60218 3.5 2 3.5H28C28.3978 3.5 28.7794 3.34196 29.0607 3.06066C29.342 2.77936 29.5 2.39782 29.5 2C29.5 1.60218 29.342 1.22064 29.0607 0.93934C28.7794 0.658035 28.3978 0.5 28 0.5ZM18 12.5H12C11.6022 12.5 11.2206 12.658 10.9393 12.9393C10.658 13.2206 10.5 13.6022 10.5 14C10.5 14.3978 10.658 14.7794 10.9393 15.0607C11.2206 15.342 11.6022 15.5 12 15.5H18C18.3978 15.5 18.7794 15.342 19.0607 15.0607C19.342 14.7794 19.5 14.3978 19.5 14C19.5 13.6022 19.342 13.2206 19.0607 12.9393C18.7794 12.658 18.3978 12.5 18 12.5Z" fill="#343330"/>
</svg>
