<svg width="21" height="21" viewBox="0 0 21 21" fill="none" xmlns="http://www.w3.org/2000/svg">
<path d="M8.70312 6.1875C8.70312 5.83211 8.80851 5.4847 9.00595 5.18921C9.2034 4.89372 9.48403 4.66341 9.81237 4.5274C10.1407 4.3914 10.502 4.35582 10.8506 4.42515C11.1991 4.49448 11.5193 4.66562 11.7706 4.91692C12.0219 5.16821 12.193 5.48839 12.2623 5.83695C12.3317 6.18551 12.2961 6.5468 12.1601 6.87513C12.0241 7.20347 11.7938 7.4841 11.4983 7.68155C11.2028 7.87899 10.8554 7.98437 10.5 7.98438C10.0234 7.98438 9.5664 7.79506 9.22942 7.45808C8.89244 7.1211 8.70312 6.66406 8.70312 6.1875ZM4.39062 6.1875C4.39063 4.56719 5.03429 3.01325 6.18002 1.86752C7.32575 0.721789 8.87969 0.078125 10.5 0.078125C12.1203 0.078125 13.6743 0.721789 14.82 1.86752C15.9657 3.01325 16.6094 4.56719 16.6094 6.1875C16.6094 11.7803 11.2628 14.9023 11.0346 15.0299C10.8717 15.1229 10.6875 15.1718 10.5 15.1718C10.3125 15.1718 10.1283 15.1229 9.96543 15.0299C9.73723 14.9023 4.39062 11.7803 4.39062 6.1875ZM6.54688 6.1875C6.54688 9.61953 9.30598 11.9555 10.5 12.8036C11.6868 11.951 14.4531 9.60156 14.4531 6.1875C14.4531 5.13907 14.0366 4.13357 13.2953 3.39222C12.5539 2.65086 11.5484 2.23438 10.5 2.23438C9.45157 2.23438 8.44607 2.65086 7.70472 3.39222C6.96336 4.13357 6.54688 5.13907 6.54688 6.1875ZM17.7387 12.0813C17.6075 12.0256 17.4665 11.9965 17.324 11.9956C17.1815 11.9948 17.0402 12.0222 16.9083 12.0763C16.7764 12.1304 16.6566 12.2101 16.5557 12.3109C16.4549 12.4116 16.375 12.5313 16.3207 12.6631C16.2664 12.7949 16.2388 12.9362 16.2395 13.0787C16.2401 13.2212 16.2691 13.3622 16.3246 13.4935C16.3801 13.6248 16.461 13.7438 16.5628 13.8436C16.6646 13.9434 16.7852 14.022 16.9175 14.0749C18.187 14.5978 18.7656 15.1961 18.7656 15.5312C18.7656 15.8906 18.125 16.5258 16.7199 17.0658C15.0757 17.6947 12.8665 18.0469 10.5 18.0469C8.13352 18.0469 5.92426 17.6983 4.28012 17.0658C2.87406 16.5258 2.23438 15.8906 2.23438 15.5312C2.23438 15.1961 2.81297 14.5978 4.08246 14.0749C4.21482 14.022 4.33539 13.9434 4.43717 13.8436C4.53895 13.7438 4.61994 13.6248 4.67544 13.4935C4.73095 13.3622 4.75986 13.2212 4.76052 13.0787C4.76118 12.9362 4.73357 12.7949 4.67928 12.6631C4.62499 12.5313 4.54511 12.4116 4.44425 12.3109C4.34339 12.2101 4.22356 12.1304 4.09169 12.0763C3.95983 12.0222 3.81853 11.9948 3.676 11.9956C3.53346 11.9965 3.39251 12.0256 3.26129 12.0813C1.80941 12.6787 0.078125 13.7622 0.078125 15.5312C0.078125 18.5985 5.32141 20.2031 10.5 20.2031C13.1252 20.2031 15.6085 19.8042 17.4943 19.0783C18.7746 18.5859 20.9219 17.471 20.9219 15.5312C20.9219 13.7622 19.1906 12.6787 17.7387 12.0813Z" fill="#707070"/>
</svg>
