<svg width="32" height="32" viewBox="0 0 32 32" fill="none" xmlns="http://www.w3.org/2000/svg">
<path d="M30.5 12C30.5 12.3978 30.3419 12.7794 30.0606 13.0607C29.7793 13.342 29.3978 13.5 29 13.5H27.5V15C27.5 15.3978 27.3419 15.7794 27.0606 16.0607C26.7793 16.342 26.3978 16.5 26 16.5C25.6021 16.5 25.2206 16.342 24.9393 16.0607C24.658 15.7794 24.5 15.3978 24.5 15V13.5H23C22.6021 13.5 22.2206 13.342 21.9393 13.0607C21.658 12.7794 21.5 12.3978 21.5 12C21.5 11.6022 21.658 11.2206 21.9393 10.9393C22.2206 10.658 22.6021 10.5 23 10.5H24.5V9C24.5 8.60218 24.658 8.22064 24.9393 7.93934C25.2206 7.65804 25.6021 7.5 26 7.5C26.3978 7.5 26.7793 7.65804 27.0606 7.93934C27.3419 8.22064 27.5 8.60218 27.5 9V10.5H29C29.3978 10.5 29.7793 10.658 30.0606 10.9393C30.3419 11.2206 30.5 11.6022 30.5 12ZM18 7.5H18.5V8C18.5 8.39782 18.658 8.77936 18.9393 9.06066C19.2206 9.34196 19.6021 9.5 20 9.5C20.3978 9.5 20.7793 9.34196 21.0606 9.06066C21.3419 8.77936 21.5 8.39782 21.5 8V7.5H22C22.3978 7.5 22.7793 7.34196 23.0606 7.06066C23.3419 6.77936 23.5 6.39782 23.5 6C23.5 5.60218 23.3419 5.22064 23.0606 4.93934C22.7793 4.65804 22.3978 4.5 22 4.5H21.5V4C21.5 3.60218 21.3419 3.22064 21.0606 2.93934C20.7793 2.65804 20.3978 2.5 20 2.5C19.6021 2.5 19.2206 2.65804 18.9393 2.93934C18.658 3.22064 18.5 3.60218 18.5 4V4.5H18C17.6021 4.5 17.2206 4.65804 16.9393 4.93934C16.658 5.22064 16.5 5.60218 16.5 6C16.5 6.39782 16.658 6.77936 16.9393 7.06066C17.2206 7.34196 17.6021 7.5 18 7.5ZM27.4762 18.7975C27.65 18.9992 27.7669 19.2435 27.815 19.5054C27.8631 19.7673 27.8407 20.0372 27.75 20.2875C27.0276 22.2588 25.8204 24.0165 24.2397 25.3982C22.6589 26.78 20.7556 27.7413 18.7054 28.1935C16.6551 28.6457 14.524 28.5742 12.5087 27.9856C10.4934 27.397 8.65881 26.3103 7.17423 24.8257C5.68965 23.3412 4.60292 21.5066 4.01433 19.4912C3.42574 17.4759 3.35424 15.3448 3.80645 13.2946C4.25865 11.2443 5.21999 9.34104 6.60173 7.76031C7.98348 6.17957 9.74112 4.97233 11.7125 4.25C11.9624 4.15868 12.2321 4.13549 12.494 4.18282C12.7559 4.23015 13.0004 4.34628 13.2026 4.51931C13.4048 4.69234 13.5573 4.91604 13.6444 5.16746C13.7316 5.41887 13.7504 5.68896 13.6987 5.95C13.5663 6.6253 13.4998 7.31185 13.5 8C13.5029 10.7839 14.6101 13.4528 16.5786 15.4213C18.5471 17.3898 21.2161 18.497 24 18.5C24.6869 18.4999 25.3721 18.4333 26.0462 18.3013C26.3072 18.2498 26.5771 18.2686 26.8284 18.3558C27.0797 18.443 27.3033 18.5954 27.4762 18.7975ZM23.75 21.5C20.2572 21.4318 16.9264 20.014 14.4562 17.5438C11.986 15.0735 10.5681 11.7428 10.5 8.25C9.37578 9.05128 8.43975 10.0879 7.75702 11.2878C7.07428 12.4877 6.66126 13.8219 6.5467 15.1977C6.43215 16.5734 6.6188 17.9576 7.09368 19.2539C7.56856 20.5502 8.32025 21.7274 9.29642 22.7035C10.2726 23.6797 11.4498 24.4314 12.7461 24.9063C14.0423 25.3812 15.4265 25.5678 16.8023 25.4533C18.178 25.3387 19.5123 24.9257 20.7122 24.2429C21.912 23.5602 22.9487 22.6242 23.75 21.5Z" fill="#343330"/>
</svg>
