<svg width="22" height="22" viewBox="0 0 22 22" fill="none" xmlns="http://www.w3.org/2000/svg">
<path d="M8.25 18.5625H4.125C3.94266 18.5625 3.7678 18.4901 3.63886 18.3612C3.50993 18.2322 3.4375 18.0574 3.4375 17.875V14.0345C3.43758 13.8524 3.50991 13.6778 3.63859 13.5489L14.2364 2.95111C14.3653 2.82228 14.5401 2.74991 14.7224 2.74991C14.9046 2.74991 15.0794 2.82228 15.2084 2.95111L19.0489 6.78908C19.1777 6.918 19.2501 7.0928 19.2501 7.27506C19.2501 7.45732 19.1777 7.63212 19.0489 7.76103L8.25 18.5625Z" stroke="#F2F2F2" stroke-width="1.375" stroke-linecap="round" stroke-linejoin="round"/>
<path d="M18.5625 18.5625H8.25" stroke="#F2F2F2" stroke-width="1.375" stroke-linecap="round" stroke-linejoin="round"/>
<path d="M11.6875 5.5L16.5 10.3125" stroke="#F2F2F2" stroke-width="1.375" stroke-linecap="round" stroke-linejoin="round"/>
</svg>
