<svg width="19" height="19" viewBox="0 0 19 19" fill="none" xmlns="http://www.w3.org/2000/svg">
<path d="M17.9796 3.77039L15.2296 1.02039C15.1338 0.924251 15.02 0.847969 14.8946 0.795919C14.7693 0.74387 14.6349 0.717077 14.4991 0.717077C14.3634 0.717077 14.229 0.74387 14.1037 0.795919C13.9783 0.847969 13.8645 0.924251 13.7687 1.02039L5.51867 9.27039C5.32595 9.46423 5.21808 9.72666 5.21875 10V12.75C5.21875 13.0235 5.3274 13.2858 5.5208 13.4792C5.71419 13.6726 5.9765 13.7813 6.25 13.7813H9C9.13547 13.7814 9.26963 13.7548 9.39481 13.703C9.52 13.6513 9.63377 13.5753 9.72961 13.4796L17.9796 5.22961C18.0755 5.13383 18.1516 5.0201 18.2035 4.89491C18.2554 4.76972 18.2821 4.63552 18.2821 4.5C18.2821 4.36448 18.2554 4.23028 18.2035 4.10509C18.1516 3.9799 18.0755 3.86617 17.9796 3.77039ZM14.5 3.21094L15.7891 4.5L14.8438 5.44531L13.5547 4.15625L14.5 3.21094ZM8.57031 11.7188H7.28125V10.4297L12.0938 5.61719L13.3828 6.90625L8.57031 11.7188ZM17.5938 11.0802V16.875C17.5938 17.3308 17.4127 17.768 17.0903 18.0903C16.768 18.4127 16.3308 18.5938 15.875 18.5938H2.125C1.66916 18.5938 1.23199 18.4127 0.90966 18.0903C0.587332 17.768 0.40625 17.3308 0.40625 16.875V3.125C0.40625 2.66916 0.587332 2.23199 0.90966 1.90966C1.23199 1.58733 1.66916 1.40625 2.125 1.40625H7.91977C8.19327 1.40625 8.45557 1.5149 8.64897 1.7083C8.84237 1.90169 8.95102 2.164 8.95102 2.4375C8.95102 2.711 8.84237 2.97331 8.64897 3.1667C8.45557 3.3601 8.19327 3.46875 7.91977 3.46875H2.46875V16.5313H15.5313V11.0802C15.5313 10.8067 15.6399 10.5444 15.8333 10.351C16.0267 10.1576 16.289 10.049 16.5625 10.049C16.836 10.049 17.0983 10.1576 17.2917 10.351C17.4851 10.5444 17.5938 10.8067 17.5938 11.0802Z" fill="#B8B7BB"/>
</svg>
