<svg width="20" height="20" viewBox="0 0 20 20" fill="none" xmlns="http://www.w3.org/2000/svg">
<path d="M18.125 12.9078L13.8943 11.0112L13.8781 11.004C13.6031 10.8855 13.3028 10.8377 13.0045 10.8652C12.7063 10.8927 12.4198 10.9945 12.1711 11.1613C12.1362 11.1846 12.1026 11.2098 12.0704 11.2367L10.066 12.9438C8.89805 12.3104 7.69145 11.1136 7.05715 9.96004L8.76958 7.92418C8.7971 7.89132 8.82261 7.85682 8.84594 7.82086C9.00836 7.57303 9.10697 7.28888 9.133 6.99371C9.15902 6.69855 9.11164 6.40153 8.99508 6.1291C8.99232 6.12389 8.98991 6.11848 8.9879 6.11293L7.09219 1.875C6.93659 1.52059 6.67101 1.22569 6.33477 1.03395C5.99854 0.842204 5.6095 0.763805 5.22524 0.810354C3.92104 0.98168 2.7238 1.62189 1.85712 2.61141C0.990443 3.60093 0.513593 4.8721 0.515632 6.1875C0.515632 13.5196 6.48036 19.4844 13.8125 19.4844C15.1279 19.4864 16.3991 19.0096 17.3886 18.1429C18.3781 17.2762 19.0183 16.079 19.1897 14.7748C19.2362 14.3905 19.1578 14.0015 18.9661 13.6652C18.7743 13.329 18.4794 13.0634 18.125 12.9078ZM13.8125 17.3281C10.8589 17.3246 8.02733 16.1497 5.93883 14.0612C3.85033 11.9727 2.67545 9.14108 2.67188 6.1875C2.66982 5.44314 2.92253 4.72049 3.38801 4.13962C3.85349 3.55875 4.50371 3.15465 5.23063 2.99446L6.92149 6.76789L5.20008 8.81813C5.17226 8.85128 5.14646 8.88609 5.12282 8.92235C4.95315 9.18159 4.85339 9.48031 4.83324 9.78949C4.81309 10.0987 4.87323 10.4078 5.00782 10.6869C5.85415 12.4191 7.59801 14.1513 9.34817 14.9994C9.62911 15.1326 9.9398 15.1906 10.2499 15.1677C10.5599 15.1449 10.8588 15.042 11.1172 14.8691C11.1519 14.8457 11.1852 14.8202 11.2169 14.7927L13.2321 13.0794L17.0056 14.7694C16.8454 15.4963 16.4413 16.1465 15.8604 16.612C15.2795 17.0775 14.5569 17.3302 13.8125 17.3281Z" fill="#707070"/>
</svg>
