<svg width="16" height="16" viewBox="0 0 16 16" fill="none" xmlns="http://www.w3.org/2000/svg">
<path d="M15.4795 13.7656C14.5155 12.0737 13.0102 10.7554 11.2059 10.0229C12.1032 9.34995 12.7659 8.41177 13.1004 7.34122C13.4348 6.27068 13.4239 5.12205 13.0692 4.05805C12.7145 2.99404 12.0341 2.0686 11.1242 1.41282C10.2144 0.757028 9.12124 0.40414 7.99968 0.40414C6.87812 0.40414 5.78499 0.757028 4.87513 1.41282C3.96528 2.0686 3.28482 2.99404 2.93015 4.05805C2.57549 5.12205 2.56459 6.27068 2.899 7.34122C3.23341 8.41177 3.89618 9.34995 4.79343 10.0229C2.98916 10.7554 1.48385 12.0737 0.519836 13.7656C0.460103 13.8617 0.42029 13.9688 0.402766 14.0805C0.385242 14.1922 0.390364 14.3064 0.417828 14.4161C0.445292 14.5258 0.494536 14.6289 0.562634 14.7192C0.630732 14.8095 0.716293 14.8852 0.814231 14.9418C0.912168 14.9984 1.02048 15.0347 1.13274 15.0486C1.24499 15.0625 1.35889 15.0536 1.46766 15.0226C1.57644 14.9916 1.67787 14.9391 1.76592 14.8681C1.85397 14.7971 1.92685 14.7091 1.98023 14.6094C3.25429 12.4072 5.50429 11.0937 7.99968 11.0937C10.4951 11.0937 12.7451 12.4079 14.0191 14.6094C14.1348 14.7954 14.3183 14.9291 14.5308 14.9823C14.7432 15.0355 14.9681 15.0039 15.1577 14.8944C15.3474 14.7848 15.487 14.6058 15.547 14.3951C15.6071 14.1845 15.5829 13.9587 15.4795 13.7656ZM4.34343 5.75C4.34343 5.02686 4.55787 4.31996 4.95962 3.7187C5.36137 3.11743 5.9324 2.6488 6.60049 2.37207C7.26859 2.09533 8.00374 2.02293 8.71298 2.164C9.42222 2.30508 10.0737 2.6533 10.585 3.16464C11.0964 3.67598 11.4446 4.32746 11.5857 5.0367C11.7268 5.74594 11.6543 6.48109 11.3776 7.14919C11.1009 7.81728 10.6323 8.38831 10.031 8.79006C9.42972 9.19181 8.72282 9.40625 7.99968 9.40625C7.03033 9.40513 6.10099 9.01956 5.41555 8.33413C4.73012 7.64869 4.34455 6.71935 4.34343 5.75Z" fill="#F2F2F2"/>
</svg>
