<svg width="18" height="18" viewBox="0 0 18 18" fill="none" xmlns="http://www.w3.org/2000/svg">
<path d="M9 11.8125C10.5533 11.8125 11.8125 10.5533 11.8125 9C11.8125 7.4467 10.5533 6.1875 9 6.1875C7.4467 6.1875 6.1875 7.4467 6.1875 9C6.1875 10.5533 7.4467 11.8125 9 11.8125Z" stroke="#F2F2F2" stroke-width="1.125" stroke-linecap="round" stroke-linejoin="round"/>
<path d="M9.1439 14.4921C9.04968 14.4921 8.95476 14.4921 8.86265 14.4921L6.60913 15.75C5.73186 15.4549 4.91817 14.9969 4.21077 14.4L4.20234 11.8688C4.15242 11.79 4.10531 11.7105 4.06171 11.629L1.82085 10.3528C1.64435 9.46005 1.64435 8.54136 1.82085 7.64859L4.0596 6.37594C4.10531 6.29508 4.15242 6.21492 4.20023 6.13617L4.21148 3.60492C4.91823 3.00631 5.73172 2.54661 6.60913 2.25L8.85913 3.50789C8.95335 3.50789 9.04828 3.50789 9.14038 3.50789L11.3904 2.25C12.2677 2.54509 13.0814 3.00311 13.7887 3.6L13.7972 6.13125C13.8471 6.21 13.8942 6.28945 13.9378 6.37102L16.1773 7.64648C16.3538 8.53925 16.3538 9.45794 16.1773 10.3507L13.9385 11.6234C13.8928 11.7042 13.8457 11.7844 13.7979 11.8631L13.7866 14.3944C13.0804 14.9931 12.2674 15.453 11.3904 15.75L9.1439 14.4921Z" stroke="#F2F2F2" stroke-width="1.125" stroke-linecap="round" stroke-linejoin="round"/>
</svg>
