<svg width="18" height="18" viewBox="0 0 18 18" fill="none" xmlns="http://www.w3.org/2000/svg">
<path d="M2.36247 10.2305C2.06958 8.64959 2.3506 7.01608 3.15494 5.62396C3.95927 4.23184 5.2341 3.17254 6.74997 2.63672V7.69922L2.36247 10.2305Z" stroke="#F2F2F2" stroke-width="1.125" stroke-linecap="round" stroke-linejoin="round"/>
<path d="M9.00016 9.02953V2.25C10.1828 2.25018 11.3446 2.56106 12.3693 3.15152C13.3939 3.74197 14.2455 4.59128 14.8387 5.61439C15.4318 6.63749 15.7458 7.79848 15.7491 8.9811C15.7524 10.1637 15.445 11.3265 14.8575 12.3529C14.2701 13.3793 13.4233 14.2333 12.402 14.8295C11.3806 15.4257 10.2206 15.7431 9.03795 15.7499C7.85535 15.7567 6.69171 15.4527 5.66358 14.8683C4.63544 14.2839 3.77888 13.4396 3.17969 12.42L9.00016 9.02953Z" stroke="#F2F2F2" stroke-width="1.125" stroke-linecap="round" stroke-linejoin="round"/>
</svg>
