<svg width="21" height="19" viewBox="0 0 21 19" fill="none" xmlns="http://www.w3.org/2000/svg">
<path d="M20.2031 6.625C20.2038 6.52482 20.1905 6.42503 20.1636 6.32852L18.8734 1.81926C18.7653 1.44478 18.5388 1.11539 18.2279 0.880386C17.9169 0.645384 17.5382 0.517412 17.1484 0.515625H3.85156C3.46179 0.517412 3.08309 0.645384 2.77213 0.880386C2.46117 1.11539 2.23468 1.44478 2.12656 1.81926L0.838203 6.32852C0.810707 6.42494 0.796797 6.52473 0.796875 6.625V8.0625C0.79678 8.64507 0.925621 9.22043 1.17415 9.74732C1.42269 10.2742 1.78475 10.7396 2.23438 11.11V17.4062C2.23438 17.6922 2.34796 17.9664 2.55015 18.1686C2.75234 18.3708 3.02656 18.4844 3.3125 18.4844H17.6875C17.9734 18.4844 18.2477 18.3708 18.4498 18.1686C18.652 17.9664 18.7656 17.6922 18.7656 17.4062V11.11C19.2152 10.7396 19.5773 10.2742 19.8258 9.74732C20.0744 9.22043 20.2032 8.64507 20.2031 8.0625V6.625ZM4.12559 2.67188H16.8789L17.7001 5.54688H3.30441L4.12559 2.67188ZM12.3014 7.70312V8.0625C12.3014 8.53906 12.1121 8.9961 11.7751 9.33308C11.4381 9.67006 10.9811 9.85938 10.5045 9.85938C10.0279 9.85938 9.57089 9.67006 9.23391 9.33308C8.89693 8.9961 8.70762 8.53906 8.70762 8.0625V7.70312H12.3014ZM3.76172 9.56379C3.51315 9.40009 3.30913 9.17721 3.168 8.91517C3.02686 8.65313 2.95303 8.36013 2.95313 8.0625V7.70312H6.54688V8.0625C6.54688 8.53906 6.35756 8.9961 6.02058 9.33308C5.6836 9.67006 5.22656 9.85938 4.75 9.85938C4.46649 9.8595 4.18707 9.79173 3.93512 9.66172C3.88059 9.62359 3.82253 9.59079 3.76172 9.56379ZM16.6094 16.3281H4.39063V11.9986C4.50922 12.0093 4.62871 12.0156 4.75 12.0156C5.28883 12.0158 5.82197 11.9055 6.31647 11.6914C6.81097 11.4774 7.25632 11.1642 7.625 10.7713C7.99377 11.1641 8.43914 11.4772 8.93361 11.6913C9.42809 11.9053 9.96119 12.0157 10.5 12.0157C11.0388 12.0157 11.5719 11.9053 12.0664 11.6913C12.5609 11.4772 13.0062 11.1641 13.375 10.7713C13.7437 11.1642 14.189 11.4774 14.6835 11.6914C15.178 11.9055 15.7112 12.0158 16.25 12.0156C16.3713 12.0156 16.4908 12.0093 16.6094 11.9986V16.3281ZM18.0469 8.0625C18.047 8.36013 17.9731 8.65313 17.832 8.91517C17.6909 9.17721 17.4869 9.40009 17.2383 9.56379C17.1791 9.5911 17.1225 9.62389 17.0694 9.66172C16.7954 9.80207 16.4901 9.86971 16.1825 9.85814C15.8749 9.84658 15.5755 9.7562 15.3128 9.59567C15.0502 9.43515 14.8333 9.20985 14.6827 8.94139C14.5322 8.67292 14.4531 8.37029 14.4531 8.0625V7.70312H18.0469V8.0625Z" fill="#707070"/>
</svg>
