<svg width="399" height="374" viewBox="0 0 399 374" fill="none" xmlns="http://www.w3.org/2000/svg">
<path d="M72.1349 58.6667C74.2682 61.8667 77.4682 62.9333 80.6682 62.9333C82.8016 62.9333 84.9349 61.8667 87.0682 60.8C91.3349 57.6 92.4016 50.1333 89.2016 45.8667L82.8016 37.3333C79.6016 33.0667 73.2016 32 67.8682 35.2C63.6016 38.4 62.5349 45.8667 65.7349 50.1333L72.1349 58.6667ZM17.7349 227.2L7.06823 230.4C1.73489 232.533 -1.46511 237.867 0.668227 244.267C1.73489 248.533 6.00156 251.733 11.3349 251.733H14.5349L25.2016 248.533C30.5349 246.4 33.7349 241.067 31.6016 234.667C29.4682 229.333 23.0682 226.133 17.7349 227.2ZM178.802 32C185.202 32 189.468 27.7333 189.468 21.3333V10.6667C189.468 4.26667 185.202 0 178.802 0C172.402 0 168.135 4.26667 168.135 10.6667V21.3333C168.135 27.7333 172.402 32 178.802 32ZM8.13489 142.933C8.13489 142.933 20.9349 147.2 22.0016 147.2C26.2682 147.2 30.5349 144 32.6682 139.733C34.8016 134.4 31.6016 128 26.2682 125.867L15.6016 122.667C10.2682 120.533 3.86823 123.733 1.73489 129.067C-1.46511 134.4 1.73489 140.8 8.13489 142.933ZM72.1349 314.667L65.7349 323.2C62.5349 327.467 63.6016 334.933 67.8682 338.133C70.0016 339.2 72.1349 340.267 74.2682 340.267C77.4682 340.267 80.6682 339.2 82.8016 336L89.2016 327.467C92.4016 323.2 91.3349 315.733 87.0682 312.533C82.8016 308.267 76.4016 309.333 72.1349 314.667ZM394.268 167.467C391.068 165.333 386.802 164.267 383.602 165.333C374.002 168.533 363.335 170.667 352.668 168.533C318.535 163.2 294.002 131.2 299.335 97.0667C301.468 84.2667 306.802 72.5333 316.402 62.9333C319.602 59.7333 319.602 55.4667 318.535 52.2667C317.468 48 313.202 45.8667 307.868 44.8C282.268 40.5333 256.668 46.9333 235.335 59.7333C218.268 52.2667 199.068 48 179.868 48C103.068 46.9333 40.1349 109.867 40.1349 186.667C40.1349 263.467 103.068 326.4 179.868 326.4C227.868 326.4 272.668 301.867 298.268 261.333C345.202 259.2 386.802 226.133 398.535 178.133C398.535 173.867 397.468 169.6 394.268 167.467ZM179.868 305.067C114.802 305.067 61.4682 251.733 61.4682 186.667C61.4682 121.6 114.802 68.2667 179.868 68.2667C192.668 68.2667 204.402 70.4 216.135 73.6C199.068 89.6 188.402 110.933 184.135 135.467C175.602 194.133 215.068 248.533 272.668 258.133C250.268 288 216.135 305.067 179.868 305.067ZM279.068 238.933C231.068 231.467 198.002 187.733 204.402 139.733C210.802 97.0667 246.002 66.1333 287.602 65.0667C282.268 73.6 279.068 84.2667 278.002 94.9333C271.602 140.8 303.602 183.467 349.468 190.933C356.935 192 363.335 192 370.802 190.933C354.802 224 317.468 244.267 279.068 238.933ZM284.402 314.667C281.202 310.4 274.802 309.333 269.468 312.533C265.202 315.733 264.135 323.2 267.335 327.467L273.735 336C275.868 339.2 279.068 340.267 282.268 340.267C284.402 340.267 286.535 339.2 288.668 338.133C292.935 334.933 294.002 327.467 290.802 323.2L284.402 314.667ZM178.802 341.333C172.402 341.333 168.135 345.6 168.135 352V362.667C168.135 369.067 172.402 373.333 178.802 373.333C185.202 373.333 189.468 369.067 189.468 362.667V352C189.468 345.6 184.135 341.333 178.802 341.333Z" fill="black"/>
</svg>
