<svg width="417" height="459" viewBox="0 0 417 459" fill="none" xmlns="http://www.w3.org/2000/svg">
<path d="M331.859 289.856C334.355 291.349 337.406 293.056 340.883 295.019C356.094 303.595 379.07 316.565 394.835 331.989C404.67 341.632 414.035 354.325 415.742 369.899C417.534 386.453 410.323 401.984 395.838 415.765C370.835 439.595 340.862 458.667 302.056 458.667H113.939C75.1551 458.667 45.1604 439.595 20.1791 415.787C5.6724 401.984 -1.53827 386.453 0.275064 369.899C1.98173 354.325 11.3257 341.632 21.1817 331.989C36.9257 316.565 59.9231 303.616 75.1124 295.019C78.5897 293.056 81.6617 291.328 84.1364 289.856C121.65 267.69 164.425 255.996 207.998 255.996C251.571 255.996 294.346 267.69 331.859 289.856Z" fill="#B288BD"/>
<path d="M95.998 112C95.998 82.2958 107.798 53.8081 128.802 32.804C149.806 11.8 178.294 0 207.998 0C237.702 0 266.19 11.8 287.194 32.804C308.198 53.8081 319.998 82.2958 319.998 112C319.998 141.704 308.198 170.192 287.194 191.196C266.19 212.2 237.702 224 207.998 224C178.294 224 149.806 212.2 128.802 191.196C107.798 170.192 95.998 141.704 95.998 112Z" fill="#65008D"/>
</svg>
